<svg width="100px" height="100px" viewBox="0 0 400 400" version="1.1" xmlns="http://www.w3.org/2000/svg" xmlns:xlink="http://www.w3.org/1999/xlink">
    <title>development-icon</title>
    <g id="development-icon" stroke="none" stroke-width="1" fill="none" fill-rule="evenodd">
        <path d="M157.383819,262 C155.871242,262 154.347597,261.504476 153.104331,260.495858 L110.324205,225.795132 C108.84852,224.596738 108,222.846589 108,220.99804 C108,219.153004 108.852209,217.402856 110.324205,216.204462 L153.104331,181.503736 C155.88231,179.247522 160.054811,179.567327 162.423286,182.213636 C164.788072,184.863458 164.456043,188.838192 161.674375,191.090892 L124.808059,220.99804 L161.674375,250.905187 C164.456043,253.161402 164.788072,257.136135 162.423286,259.782444 C161.113615,261.247929 159.254251,262 157.383819,262 Z" id="open-bracket" fill="#D8CCA8" fill-rule="nonzero"></path>
        <path d="M236.614552,262 C234.744059,262 232.884634,261.247929 231.578608,259.782444 C229.210055,257.136135 229.545784,253.161402 232.323855,250.905187 L269.191386,220.99804 L232.323855,191.090892 C229.545784,188.838192 229.210055,184.863458 231.578608,182.213636 C233.943472,179.567327 238.119801,179.247522 240.894182,181.503736 L283.675718,216.204462 C285.151452,217.402856 286,219.153004 286,220.99804 C286,222.846589 285.151452,224.596738 283.675718,225.795132 L240.894182,260.495858 C239.650875,261.504476 238.127179,262 236.614552,262 L236.614552,262 Z" id="closing-bracket" fill="#D8CCA8" fill-rule="nonzero"></path>
        <path d="M180.806368,292 C180.339927,292 179.869694,291.954378 179.395669,291.863132 C175.72482,291.147207 173.373656,287.809735 174.147265,284.412601 L201.553492,163.993343 C202.327099,160.59621 205.929689,158.42036 209.604331,159.136284 C213.27518,159.852209 215.626344,163.186173 214.852735,166.586816 L187.446509,287.006073 C186.771497,289.968037 183.950101,292 180.806368,292 L180.806368,292 Z" id="forward-slash" fill="#D8CCA8" fill-rule="nonzero"></path>
        <path d="M345.879717,359 L43.120283,359 C19.3453535,359 0,339.669851 0,315.905624 L0,59.0943758 C0,35.3337306 19.3453535,16 43.120283,16 L345.879717,16 C369.654647,16 389,35.3337306 389,59.0943758 L389,315.905624 C389,339.669851 369.654647,359 345.879717,359 Z M43.120283,28.8366226 C26.4269425,28.8366226 12.8443396,42.4110649 12.8443396,59.0943758 L12.8443396,315.905624 C12.8443396,332.588935 26.4269425,346.163377 43.120283,346.163377 L345.879717,346.163377 C362.573057,346.163377 376.15566,332.588935 376.15566,315.905624 L376.15566,59.0943758 C376.15566,42.4110649 362.573057,28.8366226 345.879717,28.8366226 L43.120283,28.8366226 Z" id="screen-outline" fill="#D8CCA8" fill-rule="nonzero"></path>
        <path d="M382.57783,118 L6.42216981,118 C2.87420724,118 0,115.762276 0,113 C0,110.240513 2.87420724,108 6.42216981,108 L382.57783,108 C386.125793,108 389,110.240513 389,113 C389,115.762276 386.125793,118 382.57783,118 Z" id="inner-screen-outline" fill="#D8CCA8" fill-rule="nonzero"></path>
        <path d="M107.5,88 C96.1998764,88 87,78.8001238 87,67.5 C87,56.1962616 96.1998764,47 107.5,47 C118.803738,47 128,56.1962616 128,67.5 C128,78.8001238 118.803738,88 107.5,88 Z M107.5,59.9557396 C103.342885,59.9557396 99.9557399,63.3392698 99.9557399,67.5 C99.9557399,71.6607302 103.342885,75.0442604 107.5,75.0442604 C111.66073,75.0442604 115.04426,71.6607302 115.04426,67.5 C115.04426,63.3392698 111.66073,59.9557396 107.5,59.9557396 Z" id="2nd-button" fill="#D8CCA8" fill-rule="nonzero"></path>
        <path d="M45.5,88 C34.1962618,88 25,78.8037382 25,67.5 C25,56.1962618 34.1962618,47 45.5,47 C56.8037382,47 66,56.1962618 66,67.5 C66,78.8037382 56.8037382,88 45.5,88 Z M45.4999995,59.9557399 C41.3428848,59.9557399 37.9557399,63.3428848 37.9557399,67.4999995 C37.9557399,71.6607298 41.3428848,75.0442601 45.4999995,75.0442601 C49.6607298,75.0442601 53.0442601,71.6607298 53.0442601,67.4999995 C53.0442601,63.3428848 49.6607298,59.9557399 45.4999995,59.9557399 Z" id="1st-button" fill="#D8CCA8" fill-rule="nonzero"></path>
        <path d="M173.498192,88 C162.197073,88 153,78.8029276 153,67.4981925 C153,56.1970724 162.197073,47 173.498192,47 C184.802927,47 194,56.1970724 194,67.4981925 C194,78.8029276 184.802927,88 173.498192,88 Z M173.498192,59.9532669 C169.340711,59.9532669 165.956882,63.3370954 165.956882,67.4981925 C165.956882,71.6592896 169.340711,75.0431181 173.498192,75.0431181 C177.659289,75.0431181 181.043118,71.6592896 181.043118,67.4981925 C181.043118,63.3370954 177.659289,59.9532669 173.498192,59.9532669 Z" id="3rd-button" fill="#D8CCA8" fill-rule="nonzero"></path>
    </g>
</svg>