<?xml version="1.0" encoding="UTF-8"?>
<svg width="1050px" height="1050px" viewBox="0 0 1050 1050" version="1.1" xmlns="http://www.w3.org/2000/svg" xmlns:xlink="http://www.w3.org/1999/xlink">
    <title>Blog-Illustration</title>
    <defs>
        <linearGradient x1="19.3655756%" y1="1.2504013%" x2="81.0784411%" y2="96.8702998%" id="linearGradient-1">
            <stop stop-color="#857246" offset="0%"></stop>
            <stop stop-color="#C2B48E" offset="26.8176755%"></stop>
            <stop stop-color="#938156" offset="56.0202594%"></stop>
            <stop stop-color="#C7B994" offset="83.3263814%"></stop>
            <stop stop-color="#847145" offset="100%"></stop>
        </linearGradient>
        <path d="M34.5,6.5 L249.5,6.5" id="path-2"></path>
        <filter x="-2.8%" y="-600.0%" width="105.6%" height="1300.0%" filterUnits="objectBoundingBox" id="filter-3">
            <feMorphology radius="0.5" operator="dilate" in="SourceAlpha" result="shadowSpreadOuter1"></feMorphology>
            <feOffset dx="0" dy="0" in="shadowSpreadOuter1" result="shadowOffsetOuter1"></feOffset>
            <feMorphology radius="1" operator="erode" in="SourceAlpha" result="shadowInner"></feMorphology>
            <feOffset dx="0" dy="0" in="shadowInner" result="shadowInner"></feOffset>
            <feComposite in="shadowOffsetOuter1" in2="shadowInner" operator="out" result="shadowOffsetOuter1"></feComposite>
            <feGaussianBlur stdDeviation="2" in="shadowOffsetOuter1" result="shadowBlurOuter1"></feGaussianBlur>
            <feColorMatrix values="0 0 0 0 0   0 0 0 0 0   0 0 0 0 0  0 0 0 0.5 0" type="matrix" in="shadowBlurOuter1"></feColorMatrix>
        </filter>
        <linearGradient x1="50%" y1="0%" x2="50%" y2="100%" id="linearGradient-4">
            <stop stop-color="#EEEEEE" offset="0%"></stop>
            <stop stop-color="#3F3F3F" offset="100%"></stop>
        </linearGradient>
    </defs>
    <g id="Blog-Illustration" stroke="none" stroke-width="1" fill="none" fill-rule="evenodd">
        <path d="M266.82433,168.741789 L758.752291,168.741789 C780.843681,168.741789 798.752291,186.650399 798.752291,208.741789 L798.752291,839.570225 C798.752291,861.661615 780.843681,879.570225 758.752291,879.570225 L266.82433,879.570225 C244.73294,879.570225 226.82433,861.661615 226.82433,839.570225 L226.82433,208.741789 C226.82433,186.650399 244.73294,168.741789 266.82433,168.741789 Z" id="Page" stroke="#847145" stroke-width="4" fill="url(#linearGradient-1)"></path>
        <polyline id="blog-line-1" stroke="#1D071F" stroke-width="9" points="329.010175 337.77629 412.448778 380.245654 461.160895 337.77629 518.363232 371.94781 717.982402 272.953949"></polyline>
        <polyline id="blog-line-2" stroke="#1D071F" stroke-width="9" points="329.010175 404.77629 412.448778 447.245654 461.160895 404.77629 518.363232 438.94781 717.982402 339.953949"></polyline>
        <polyline id="blog-line-3" stroke="#1D071F" stroke-width="9" points="329.010175 458.77629 412.448778 501.245654 461.160895 458.77629 518.363232 492.94781 717.982402 393.953949"></polyline>
        <g id="Pencil" transform="translate(59.000000, 327.000000)">
            <rect id="Pencil-Yellow-Wrapper" fill="#E8B923" x="13" y="0" width="245" height="13"></rect>
            <path d="M4,0 L13,0 L13,0 L13,13 L4,13 C1.790861,13 2.705415e-16,11.209139 0,9 L0,4 C-2.705415e-16,1.790861 1.790861,4.05812251e-16 4,0 Z" id="Eraser" fill="#FF77C3"></path>
            <g id="Pencil-Shadow" stroke-linecap="square">
                <use fill="black" fill-opacity="1" filter="url(#filter-3)" xlink:href="#path-2"></use>
                <use stroke-opacity="0.0684993717" stroke="#757575" stroke-width="1" xlink:href="#path-2"></use>
            </g>
            <polygon id="Pencil-Wood-Before-Lead" fill="#A18355" transform="translate(264.500000, 6.500000) rotate(90.000000) translate(-264.500000, -6.500000) " points="264.5 0 271 13 258 13"></polygon>
            <polygon id="Pencil-Lead" fill="#000000" transform="translate(268.500000, 6.500000) rotate(90.000000) translate(-268.500000, -6.500000) " points="268.5 4 271 9 266 9"></polygon>
        </g>
        <path d="M458.5,606 C479.210678,606 496,622.789322 496,643.5 C496,646.574409 495.630029,649.562407 494.93218,652.4219 C505.763531,658.996293 513,670.903062 513,684.5 C513,705.210678 496.210678,722 475.5,722 C463.878338,722 453.49144,716.713344 446.612999,708.413725 C439.861363,714.966074 430.651768,719 420.5,719 C399.789322,719 383,702.210678 383,681.5 C383,660.789322 399.789322,644 420.5,644 C420.668358,644 420.836456,644.001109 421.004289,644.003321 L421,643.5 C421,622.789322 437.789322,606 458.5,606 Z" id="Smoke-cloud-1" fill="url(#linearGradient-4)"></path>
    </g>
</svg>