<?xml version="1.0" encoding="UTF-8"?>
<svg width="1050px" height="1050px" viewBox="0 0 1050 1050" version="1.1" xmlns="http://www.w3.org/2000/svg" xmlns:xlink="http://www.w3.org/1999/xlink">
    <title>Contact-Illustration</title>
    <defs>
        <linearGradient x1="50%" y1="0%" x2="50%" y2="100%" id="linearGradient-1">
            <stop stop-color="#D3B900" offset="0%"></stop>
            <stop stop-color="#A58100" offset="47.157901%"></stop>
            <stop stop-color="#F4BE12" offset="100%"></stop>
        </linearGradient>
        <polygon id="path-2" points="78 316.07732 525 525.5 972 316.07732 972 735 78 735"></polygon>
        <filter x="-8.7%" y="-18.0%" width="117.3%" height="137.0%" filterUnits="objectBoundingBox" id="filter-3">
            <feOffset dx="0" dy="2" in="SourceAlpha" result="shadowOffsetOuter1"></feOffset>
            <feGaussianBlur stdDeviation="25.5" in="shadowOffsetOuter1" result="shadowBlurOuter1"></feGaussianBlur>
            <feColorMatrix values="0 0 0 0 0   0 0 0 0 0   0 0 0 0 0  0 0 0 0.5 0" type="matrix" in="shadowBlurOuter1"></feColorMatrix>
        </filter>
        <linearGradient x1="50%" y1="0%" x2="50%" y2="100%" id="linearGradient-4">
            <stop stop-color="#EEEEEE" offset="0%"></stop>
            <stop stop-color="#3F3F3F" offset="100%"></stop>
        </linearGradient>
    </defs>
    <g id="Contact-Illustration" stroke="none" stroke-width="1" fill="none" fill-rule="evenodd">
        <rect id="Envelope-Back" fill="#D8D8D8" x="78" y="316" width="894" height="419"></rect>
        <rect id="Letter" fill="url(#linearGradient-1)" x="78" y="380" width="894" height="355"></rect>
        <g id="Envelope-Bottom">
            <use fill="black" fill-opacity="1" filter="url(#filter-3)" xlink:href="#path-2"></use>
            <use fill="#D8D8D8" fill-rule="evenodd" xlink:href="#path-2"></use>
        </g>
        <polyline id="Envelope-Top" fill="#AEAEAE" points="78 316.07732 525 77 972 316.07732"></polyline>
        <path d="M197,665 C237.316787,665 270,697.683213 270,738 C270,743.559735 269.378471,748.974304 268.201105,754.178016 C289.633294,766.895133 304,790.269804 304,817 C304,857.316787 271.316787,890 231,890 C208.351534,890 188.112051,879.68592 174.722339,863.498548 C161.590125,876.191023 143.707004,884 124,884 C83.6832133,884 51,851.316787 51,811 C51,770.683213 83.6832133,738 124,738 L124,738 L124.00978,736.792812 C124.654428,697.032817 157.086381,665 197,665 Z" id="Smoke-cloud-2" fill="url(#linearGradient-4)"></path>
        <path d="M175,799 C215.316787,799 248,831.683213 248,872 C248,877.559735 247.378471,882.974304 246.201105,888.178016 C267.633294,900.895133 282,924.269804 282,951 C282,991.316787 249.316787,1024 209,1024 C186.351534,1024 166.112051,1013.68592 152.722339,997.498548 C139.590125,1010.19102 121.707004,1018 102,1018 C61.6832133,1018 29,985.316787 29,945 C29,904.683213 61.6832133,872 102,872 L102,872 L102.00978,870.792812 C102.654428,831.032817 135.086381,799 175,799 Z" id="Smoke-cloud-1" fill="url(#linearGradient-4)"></path>
    </g>
</svg>