<?xml version="1.0" encoding="UTF-8"?>
<svg width="1500px" height="844px" viewBox="0 0 1500 844" version="1.1" xmlns="http://www.w3.org/2000/svg" xmlns:xlink="http://www.w3.org/1999/xlink">
    <title>Matrix-Background</title>
    <defs>
        <linearGradient x1="50%" y1="53.5835293%" x2="80.896476%" y2="101.388429%" id="linearGradient-1">
            <stop stop-color="#000" offset="0%"></stop>
            <stop stop-color="rgba(29,7,31,0.75)" offset="100%"></stop>
        </linearGradient>
    </defs>
    <g id="Matrix-Background" stroke="none" stroke-width="1" fill="none" fill-rule="evenodd">
        <style>
          text {
            transform: scale(1.4);
          }
          tspan {
            fill: black;
            font-size: 1.3em;
          }
          tspan:nth-child(odd) {
            animation: number-color-animation-1 1s linear infinite forwards;
          }
          tspan:nth-child(even) {
            animation: number-color-animation-2 1s linear  infinite forwards;
          }
          text:nth-child(odd) {
            animation: number-line-maxtrix-animation 10s linear infinite forwards;
          }
          text:nth-child(even) {
            animation: number-line-maxtrix-animation 5s linear infinite forwards;
          }
          @keyframes number-line-maxtrix-animation {
            0% {
                transform: translateY(1000px);
            }
            100% {
                transform: translateY(-1000px);
            }
          }
          @keyframes number-color-animation-1 {
            0% {
              fill: black;
            }
            25% {
              fill: white;
            }
            50% {
              fill: #D4AF37;
            }
            75% {
              fill: white;
            }
            100% {
              fill: black;
            }
          }
          @keyframes number-color-animation-2 {
            0% {
              fill: white;
            }
            50% {
              fill: black;
            }
            100% {
              fill: white;
            }
          }
        </style>
        <rect id="Rectangle" fill="url(#linearGradient-1)" x="0" y="0" width="1500" height="844"></rect>
        <text id="number-line-copy-3" font-family="Helvetica" font-size="10" font-weight="normal" fill="#FFFFFF">
            <tspan x="280.219238" y="516">0</tspan>
            <tspan x="280.219238" y="528">1</tspan>
            <tspan x="280.219238" y="540">0</tspan>
            <tspan x="280.219238" y="552">1</tspan>
            <tspan x="280.219238" y="564">0</tspan>
            <tspan x="280.219238" y="576">1</tspan>
            <tspan x="280.219238" y="588">0</tspan>
            <tspan x="280.587891" y="600">1</tspan>
            <tspan x="280.219238" y="612">1</tspan>
            <tspan x="280.219238" y="624">0</tspan>
            <tspan x="280.219238" y="636">1</tspan>
            <tspan x="280.219238" y="648">0</tspan>
            <tspan x="280.219238" y="660">1</tspan>
            <tspan x="280.219238" y="672">0</tspan>
            <tspan x="280.219238" y="684">1</tspan>
            <tspan x="280.219238" y="696">0</tspan>
            <tspan x="280.587891" y="708">1</tspan>
            <tspan x="280.219238" y="720">1</tspan>
            <tspan x="280.219238" y="732">0</tspan>
            <tspan x="280.219238" y="744">1</tspan>
            <tspan x="280.219238" y="756">0</tspan>
            <tspan x="280.219238" y="768">1</tspan>
            <tspan x="280.219238" y="780">0</tspan>
            <tspan x="280.219238" y="792">1</tspan>
            <tspan x="280.219238" y="804">0</tspan>
            <tspan x="280.587891" y="816">1</tspan>
            <tspan x="280.219238" y="828">1</tspan>
        </text>
        <text id="number-line-copy" font-family="Helvetica" font-size="10" font-weight="normal" fill="#FFFFFF">
            <tspan x="394.219238" y="182">0</tspan>
            <tspan x="394.219238" y="194">1</tspan>
            <tspan x="394.219238" y="206">0</tspan>
            <tspan x="394.219238" y="218">1</tspan>
            <tspan x="394.219238" y="230">0</tspan>
            <tspan x="394.219238" y="242">1</tspan>
            <tspan x="394.219238" y="254">0</tspan>
            <tspan x="394.587891" y="266">1</tspan>
            <tspan x="394.219238" y="278">1</tspan>
            <tspan x="394.219238" y="290">0</tspan>
            <tspan x="394.219238" y="302">1</tspan>
            <tspan x="394.219238" y="314">0</tspan>
            <tspan x="394.219238" y="326">1</tspan>
            <tspan x="394.219238" y="338">0</tspan>
            <tspan x="394.219238" y="350">1</tspan>
            <tspan x="394.219238" y="362">0</tspan>
            <tspan x="394.587891" y="374">1</tspan>
            <tspan x="394.219238" y="386">1</tspan>
            <tspan x="394.219238" y="398">0</tspan>
            <tspan x="394.219238" y="410">1</tspan>
            <tspan x="394.219238" y="422">0</tspan>
            <tspan x="394.219238" y="434">1</tspan>
            <tspan x="394.219238" y="446">0</tspan>
            <tspan x="394.219238" y="458">1</tspan>
            <tspan x="394.219238" y="470">0</tspan>
            <tspan x="394.587891" y="482">1</tspan>
            <tspan x="394.219238" y="494">1</tspan>
        </text>
        <text id="number-line-copy-2" font-family="Helvetica" font-size="10" font-weight="normal" fill="#FFFFFF">
            <tspan x="122.219238" y="186">0</tspan>
            <tspan x="122.219238" y="198">1</tspan>
            <tspan x="122.219238" y="210">0</tspan>
            <tspan x="122.219238" y="222">1</tspan>
            <tspan x="122.219238" y="234">0</tspan>
            <tspan x="122.219238" y="246">1</tspan>
            <tspan x="122.219238" y="258">0</tspan>
            <tspan x="122.587891" y="270">1</tspan>
            <tspan x="122.219238" y="282">1</tspan>
            <tspan x="122.219238" y="294">0</tspan>
            <tspan x="122.219238" y="306">1</tspan>
            <tspan x="122.219238" y="318">0</tspan>
            <tspan x="122.219238" y="330">1</tspan>
            <tspan x="122.219238" y="342">0</tspan>
            <tspan x="122.219238" y="354">1</tspan>
            <tspan x="122.219238" y="366">0</tspan>
            <tspan x="122.587891" y="378">1</tspan>
            <tspan x="122.219238" y="390">1</tspan>
            <tspan x="122.219238" y="402">0</tspan>
            <tspan x="122.219238" y="414">1</tspan>
            <tspan x="122.219238" y="426">0</tspan>
            <tspan x="122.219238" y="438">1</tspan>
            <tspan x="122.219238" y="450">0</tspan>
            <tspan x="122.219238" y="462">1</tspan>
            <tspan x="122.219238" y="474">0</tspan>
            <tspan x="122.587891" y="486">1</tspan>
            <tspan x="122.219238" y="498">1</tspan>
        </text>
        <text id="number-line-copy-7" font-family="Helvetica" font-size="10" font-weight="normal" fill="#FFFFFF">
            <tspan x="1075.21924" y="58">0</tspan>
            <tspan x="1075.21924" y="70">1</tspan>
            <tspan x="1075.21924" y="82">0</tspan>
            <tspan x="1075.21924" y="94">1</tspan>
            <tspan x="1075.21924" y="106">0</tspan>
            <tspan x="1075.21924" y="118">1</tspan>
            <tspan x="1075.21924" y="130">0</tspan>
            <tspan x="1075.58789" y="142">1</tspan>
            <tspan x="1075.21924" y="154">1</tspan>
            <tspan x="1075.21924" y="166">0</tspan>
            <tspan x="1075.21924" y="178">1</tspan>
            <tspan x="1075.21924" y="190">0</tspan>
            <tspan x="1075.21924" y="202">1</tspan>
            <tspan x="1075.21924" y="214">0</tspan>
            <tspan x="1075.21924" y="226">1</tspan>
            <tspan x="1075.21924" y="238">0</tspan>
            <tspan x="1075.58789" y="250">1</tspan>
            <tspan x="1075.21924" y="262">1</tspan>
            <tspan x="1075.21924" y="274">0</tspan>
            <tspan x="1075.21924" y="286">1</tspan>
            <tspan x="1075.21924" y="298">0</tspan>
            <tspan x="1075.21924" y="310">1</tspan>
            <tspan x="1075.21924" y="322">0</tspan>
            <tspan x="1075.21924" y="334">1</tspan>
            <tspan x="1075.21924" y="346">0</tspan>
            <tspan x="1075.58789" y="358">1</tspan>
            <tspan x="1075.21924" y="370">1</tspan>
        </text>
        <text id="number-line-copy-6" font-family="Helvetica" font-size="10" font-weight="normal" fill="#FFFFFF">
            <tspan x="622.219238" y="32">0</tspan>
            <tspan x="622.219238" y="44">1</tspan>
            <tspan x="622.219238" y="56">0</tspan>
            <tspan x="622.219238" y="68">1</tspan>
            <tspan x="622.219238" y="80">0</tspan>
            <tspan x="622.219238" y="92">1</tspan>
            <tspan x="622.219238" y="104">0</tspan>
            <tspan x="622.587891" y="116">1</tspan>
            <tspan x="622.219238" y="128">1</tspan>
            <tspan x="622.219238" y="140">0</tspan>
            <tspan x="622.219238" y="152">1</tspan>
            <tspan x="622.219238" y="164">0</tspan>
            <tspan x="622.219238" y="176">1</tspan>
            <tspan x="622.219238" y="188">0</tspan>
            <tspan x="622.219238" y="200">1</tspan>
            <tspan x="622.219238" y="212">0</tspan>
            <tspan x="622.587891" y="224">1</tspan>
            <tspan x="622.219238" y="236">1</tspan>
            <tspan x="622.219238" y="248">0</tspan>
            <tspan x="622.219238" y="260">1</tspan>
            <tspan x="622.219238" y="272">0</tspan>
            <tspan x="622.219238" y="284">1</tspan>
            <tspan x="622.219238" y="296">0</tspan>
            <tspan x="622.219238" y="308">1</tspan>
            <tspan x="622.219238" y="320">0</tspan>
            <tspan x="622.587891" y="332">1</tspan>
            <tspan x="622.219238" y="344">1</tspan>
        </text>
        <text id="number-line-copy-5" font-family="Helvetica" font-size="10" font-weight="normal" fill="#FFFFFF">
            <tspan x="911.219238" y="342">0</tspan>
            <tspan x="911.219238" y="354">1</tspan>
            <tspan x="911.219238" y="366">0</tspan>
            <tspan x="911.219238" y="378">1</tspan>
            <tspan x="911.219238" y="390">0</tspan>
            <tspan x="911.219238" y="402">1</tspan>
            <tspan x="911.219238" y="414">0</tspan>
            <tspan x="911.587891" y="426">1</tspan>
            <tspan x="911.219238" y="438">1</tspan>
            <tspan x="911.219238" y="450">0</tspan>
            <tspan x="911.219238" y="462">1</tspan>
            <tspan x="911.219238" y="474">0</tspan>
            <tspan x="911.219238" y="486">1</tspan>
            <tspan x="911.219238" y="498">0</tspan>
            <tspan x="911.219238" y="510">1</tspan>
            <tspan x="911.219238" y="522">0</tspan>
            <tspan x="911.587891" y="534">1</tspan>
            <tspan x="911.219238" y="546">1</tspan>
            <tspan x="911.219238" y="558">0</tspan>
            <tspan x="911.219238" y="570">1</tspan>
            <tspan x="911.219238" y="582">0</tspan>
            <tspan x="911.219238" y="594">1</tspan>
            <tspan x="911.219238" y="606">0</tspan>
            <tspan x="911.219238" y="618">1</tspan>
            <tspan x="911.219238" y="630">0</tspan>
            <tspan x="911.587891" y="642">1</tspan>
            <tspan x="911.219238" y="654">1</tspan>
        </text>
        <text id="number-line-copy-4" font-family="Helvetica" font-size="10" font-weight="normal" fill="#FFFFFF">
            <tspan x="564.219238" y="616">0</tspan>
            <tspan x="564.219238" y="628">1</tspan>
            <tspan x="564.219238" y="640">0</tspan>
            <tspan x="564.219238" y="652">1</tspan>
            <tspan x="564.219238" y="664">0</tspan>
            <tspan x="564.219238" y="676">1</tspan>
            <tspan x="564.219238" y="688">0</tspan>
            <tspan x="564.587891" y="700">1</tspan>
            <tspan x="564.219238" y="712">1</tspan>
            <tspan x="564.219238" y="724">0</tspan>
            <tspan x="564.219238" y="736">1</tspan>
            <tspan x="564.219238" y="748">0</tspan>
            <tspan x="564.219238" y="760">1</tspan>
            <tspan x="564.219238" y="772">0</tspan>
            <tspan x="564.219238" y="784">1</tspan>
            <tspan x="564.219238" y="796">0</tspan>
            <tspan x="564.587891" y="808">1</tspan>
            <tspan x="564.219238" y="820">1</tspan>
            <tspan x="564.219238" y="832">0</tspan>
            <tspan x="564.219238" y="844">1</tspan>
            <tspan x="564.219238" y="856">0</tspan>
            <tspan x="564.219238" y="868">1</tspan>
            <tspan x="564.219238" y="880">0</tspan>
            <tspan x="564.219238" y="892">1</tspan>
            <tspan x="564.219238" y="904">0</tspan>
            <tspan x="564.587891" y="916">1</tspan>
            <tspan x="564.219238" y="928">1</tspan>
        </text>
        <text id="number-line-copy-11" font-family="Helvetica" font-size="10" font-weight="normal" fill="#FFFFFF">
            <tspan x="1278.21924" y="396">0</tspan>
            <tspan x="1278.21924" y="408">1</tspan>
            <tspan x="1278.21924" y="420">0</tspan>
            <tspan x="1278.21924" y="432">1</tspan>
            <tspan x="1278.21924" y="444">0</tspan>
            <tspan x="1278.21924" y="456">1</tspan>
            <tspan x="1278.21924" y="468">0</tspan>
            <tspan x="1278.58789" y="480">1</tspan>
            <tspan x="1278.21924" y="492">1</tspan>
            <tspan x="1278.21924" y="504">0</tspan>
            <tspan x="1278.21924" y="516">1</tspan>
            <tspan x="1278.21924" y="528">0</tspan>
            <tspan x="1278.21924" y="540">1</tspan>
            <tspan x="1278.21924" y="552">0</tspan>
            <tspan x="1278.21924" y="564">1</tspan>
            <tspan x="1278.21924" y="576">0</tspan>
            <tspan x="1278.58789" y="588">1</tspan>
            <tspan x="1278.21924" y="600">1</tspan>
            <tspan x="1278.21924" y="612">0</tspan>
            <tspan x="1278.21924" y="624">1</tspan>
            <tspan x="1278.21924" y="636">0</tspan>
            <tspan x="1278.21924" y="648">1</tspan>
            <tspan x="1278.21924" y="660">0</tspan>
            <tspan x="1278.21924" y="672">1</tspan>
            <tspan x="1278.21924" y="684">0</tspan>
            <tspan x="1278.58789" y="696">1</tspan>
            <tspan x="1278.21924" y="708">1</tspan>
        </text>
        <text id="number-line-copy-10" font-family="Helvetica" font-size="10" font-weight="normal" fill="#FFFFFF">
            <tspan x="1364.21924" y="743">0</tspan>
            <tspan x="1364.21924" y="755">1</tspan>
            <tspan x="1364.21924" y="767">0</tspan>
            <tspan x="1364.21924" y="779">1</tspan>
            <tspan x="1364.21924" y="791">0</tspan>
            <tspan x="1364.21924" y="803">1</tspan>
            <tspan x="1364.21924" y="815">0</tspan>
            <tspan x="1364.58789" y="827">1</tspan>
            <tspan x="1364.21924" y="839">1</tspan>
            <tspan x="1364.21924" y="851">0</tspan>
            <tspan x="1364.21924" y="863">1</tspan>
            <tspan x="1364.21924" y="875">0</tspan>
            <tspan x="1364.21924" y="887">1</tspan>
            <tspan x="1364.21924" y="899">0</tspan>
            <tspan x="1364.21924" y="911">1</tspan>
            <tspan x="1364.21924" y="923">0</tspan>
            <tspan x="1364.58789" y="935">1</tspan>
            <tspan x="1364.21924" y="947">1</tspan>
            <tspan x="1364.21924" y="959">0</tspan>
            <tspan x="1364.21924" y="971">1</tspan>
            <tspan x="1364.21924" y="983">0</tspan>
            <tspan x="1364.21924" y="995">1</tspan>
            <tspan x="1364.21924" y="1007">0</tspan>
            <tspan x="1364.21924" y="1019">1</tspan>
            <tspan x="1364.21924" y="1031">0</tspan>
            <tspan x="1364.58789" y="1043">1</tspan>
            <tspan x="1364.21924" y="1055">1</tspan>
        </text>
        <text id="number-line-copy-9" font-family="Helvetica" font-size="10" font-weight="normal" fill="#FFFFFF">
            <tspan x="1419.21924" y="92">0</tspan>
            <tspan x="1419.21924" y="104">1</tspan>
            <tspan x="1419.21924" y="116">0</tspan>
            <tspan x="1419.21924" y="128">1</tspan>
            <tspan x="1419.21924" y="140">0</tspan>
            <tspan x="1419.21924" y="152">1</tspan>
            <tspan x="1419.21924" y="164">0</tspan>
            <tspan x="1419.58789" y="176">1</tspan>
            <tspan x="1419.21924" y="188">1</tspan>
            <tspan x="1419.21924" y="200">0</tspan>
            <tspan x="1419.21924" y="212">1</tspan>
            <tspan x="1419.21924" y="224">0</tspan>
            <tspan x="1419.21924" y="236">1</tspan>
            <tspan x="1419.21924" y="248">0</tspan>
            <tspan x="1419.21924" y="260">1</tspan>
            <tspan x="1419.21924" y="272">0</tspan>
            <tspan x="1419.58789" y="284">1</tspan>
            <tspan x="1419.21924" y="296">1</tspan>
            <tspan x="1419.21924" y="308">0</tspan>
            <tspan x="1419.21924" y="320">1</tspan>
            <tspan x="1419.21924" y="332">0</tspan>
            <tspan x="1419.21924" y="344">1</tspan>
            <tspan x="1419.21924" y="356">0</tspan>
            <tspan x="1419.21924" y="368">1</tspan>
            <tspan x="1419.21924" y="380">0</tspan>
            <tspan x="1419.58789" y="392">1</tspan>
            <tspan x="1419.21924" y="404">1</tspan>
        </text>
    </g>
</svg>