<?xml version="1.0" encoding="UTF-8"?>
<svg width="1500px" height="844px" viewBox="0 0 1500 844" version="1.1" xmlns="http://www.w3.org/2000/svg" xmlns:xlink="http://www.w3.org/1999/xlink">
    <title>Matrix-Background</title>
    <g id="Matrix-Background" stroke="none" stroke-width="1" fill="none" fill-rule="evenodd">
        <rect fill="#333333" x="0" y="0" width="1500" height="844"></rect>
        <g id="Group-2" transform="translate(37.000000, 12.000000)" fill="#FFFFFF" font-family="Helvetica" font-size="10" font-weight="normal">
            <style>
                #number-line-1 {
                    animation: number-line-maxtrix-animation 10s linear forwards;
                }
                #number-line-2 {
                    animation: number-line-maxtrix-animation 10s linear forwards;
                }
                #number-line-3 {
                    animation: number-line-maxtrix-animation 10s linear forwards;
                }
                @keyframes number-line-maxtrix-animation {
                    0% {
                        transform: translateY(1000px);
                    }
                    100% {
                        transform: translateY(-500px);
                    }
                }
            </style>
            <text id="number-line-1">
                <tspan x="2.21923828" y="10">0</tspan>
                <tspan x="2.21923828" y="22">1</tspan>
                <tspan x="2.21923828" y="34">0</tspan>
                <tspan x="2.21923828" y="46">1</tspan>
                <tspan x="2.21923828" y="58">0</tspan>
                <tspan x="2.21923828" y="70">1</tspan>
                <tspan x="2.21923828" y="82">0</tspan>
                <tspan x="2.58789062" y="94">1</tspan>
                <tspan x="2.21923828" y="106">1</tspan>
                <tspan x="2.21923828" y="118">0</tspan>
                <tspan x="2.21923828" y="130">1</tspan>
                <tspan x="2.21923828" y="142">0</tspan>
                <tspan x="2.21923828" y="154">1</tspan>
                <tspan x="2.21923828" y="166">0</tspan>
                <tspan x="2.21923828" y="178">1</tspan>
                <tspan x="2.21923828" y="190">0</tspan>
                <tspan x="2.58789062" y="202">1</tspan>
                <tspan x="2.21923828" y="214">1</tspan>
                <tspan x="2.21923828" y="226">0</tspan>
                <tspan x="2.21923828" y="238">1</tspan>
                <tspan x="2.21923828" y="250">0</tspan>
                <tspan x="2.21923828" y="262">1</tspan>
                <tspan x="2.21923828" y="274">0</tspan>
                <tspan x="2.21923828" y="286">1</tspan>
                <tspan x="2.21923828" y="298">0</tspan>
                <tspan x="2.58789062" y="310">1</tspan>
                <tspan x="2.21923828" y="322">1</tspan>
            </text>
            <text id="number-line-2">
                <tspan x="55.2192383" y="93">0</tspan>
                <tspan x="55.2192383" y="105">1</tspan>
                <tspan x="55.2192383" y="117">0</tspan>
                <tspan x="55.2192383" y="129">1</tspan>
                <tspan x="55.2192383" y="141">0</tspan>
                <tspan x="55.2192383" y="153">1</tspan>
                <tspan x="55.2192383" y="165">0</tspan>
                <tspan x="55.5878906" y="177">1</tspan>
                <tspan x="55.2192383" y="189">1</tspan>
                <tspan x="55.2192383" y="201">0</tspan>
                <tspan x="55.2192383" y="213">1</tspan>
                <tspan x="55.2192383" y="225">0</tspan>
                <tspan x="55.2192383" y="237">1</tspan>
                <tspan x="55.2192383" y="249">0</tspan>
                <tspan x="55.2192383" y="261">1</tspan>
                <tspan x="55.2192383" y="273">0</tspan>
                <tspan x="55.5878906" y="285">1</tspan>
                <tspan x="55.2192383" y="297">1</tspan>
                <tspan x="55.2192383" y="309">0</tspan>
                <tspan x="55.2192383" y="321">1</tspan>
                <tspan x="55.2192383" y="333">0</tspan>
                <tspan x="55.2192383" y="345">1</tspan>
                <tspan x="55.2192383" y="357">0</tspan>
                <tspan x="55.2192383" y="369">1</tspan>
                <tspan x="55.2192383" y="381">0</tspan>
                <tspan x="55.5878906" y="393">1</tspan>
                <tspan x="55.2192383" y="405">1</tspan>
            </text>
            <text id="number-line-3">
                <tspan x="144.219238" y="200">0</tspan>
                <tspan x="144.219238" y="212">1</tspan>
                <tspan x="144.219238" y="224">0</tspan>
                <tspan x="144.219238" y="236">1</tspan>
                <tspan x="144.219238" y="248">0</tspan>
                <tspan x="144.219238" y="260">1</tspan>
                <tspan x="144.219238" y="272">0</tspan>
                <tspan x="144.587891" y="284">1</tspan>
                <tspan x="144.219238" y="296">1</tspan>
                <tspan x="144.219238" y="308">0</tspan>
                <tspan x="144.219238" y="320">1</tspan>
                <tspan x="144.219238" y="332">0</tspan>
                <tspan x="144.219238" y="344">1</tspan>
                <tspan x="144.219238" y="356">0</tspan>
                <tspan x="144.219238" y="368">1</tspan>
                <tspan x="144.219238" y="380">0</tspan>
                <tspan x="144.587891" y="392">1</tspan>
                <tspan x="144.219238" y="404">1</tspan>
                <tspan x="144.219238" y="416">0</tspan>
                <tspan x="144.219238" y="428">1</tspan>
                <tspan x="144.219238" y="440">0</tspan>
                <tspan x="144.219238" y="452">1</tspan>
                <tspan x="144.219238" y="464">0</tspan>
                <tspan x="144.219238" y="476">1</tspan>
                <tspan x="144.219238" y="488">0</tspan>
                <tspan x="144.587891" y="500">1</tspan>
                <tspan x="144.219238" y="512">1</tspan>
            </text>
        </g>
        <g id="Group-3" transform="translate(434.000000, 322.000000)" fill="#FFFFFF" font-family="Helvetica" font-size="10" font-weight="normal">
            <text id="010101011-010101011-copy-6">
                <tspan x="2.21923828" y="10">0</tspan>
                <tspan x="2.21923828" y="22">1</tspan>
                <tspan x="2.21923828" y="34">0</tspan>
                <tspan x="2.21923828" y="46">1</tspan>
                <tspan x="2.21923828" y="58">0</tspan>
                <tspan x="2.21923828" y="70">1</tspan>
                <tspan x="2.21923828" y="82">0</tspan>
                <tspan x="2.58789062" y="94">1</tspan>
                <tspan x="2.21923828" y="106">1</tspan>
                <tspan x="2.21923828" y="118">0</tspan>
                <tspan x="2.21923828" y="130">1</tspan>
                <tspan x="2.21923828" y="142">0</tspan>
                <tspan x="2.21923828" y="154">1</tspan>
                <tspan x="2.21923828" y="166">0</tspan>
                <tspan x="2.21923828" y="178">1</tspan>
                <tspan x="2.21923828" y="190">0</tspan>
                <tspan x="2.58789062" y="202">1</tspan>
                <tspan x="2.21923828" y="214">1</tspan>
                <tspan x="2.21923828" y="226">0</tspan>
                <tspan x="2.21923828" y="238">1</tspan>
                <tspan x="2.21923828" y="250">0</tspan>
                <tspan x="2.21923828" y="262">1</tspan>
                <tspan x="2.21923828" y="274">0</tspan>
                <tspan x="2.21923828" y="286">1</tspan>
                <tspan x="2.21923828" y="298">0</tspan>
                <tspan x="2.58789062" y="310">1</tspan>
                <tspan x="2.21923828" y="322">1</tspan>
            </text>
            <text id="010101011-010101011-copy-5">
                <tspan x="55.2192383" y="93">0</tspan>
                <tspan x="55.2192383" y="105">1</tspan>
                <tspan x="55.2192383" y="117">0</tspan>
                <tspan x="55.2192383" y="129">1</tspan>
                <tspan x="55.2192383" y="141">0</tspan>
                <tspan x="55.2192383" y="153">1</tspan>
                <tspan x="55.2192383" y="165">0</tspan>
                <tspan x="55.5878906" y="177">1</tspan>
                <tspan x="55.2192383" y="189">1</tspan>
                <tspan x="55.2192383" y="201">0</tspan>
                <tspan x="55.2192383" y="213">1</tspan>
                <tspan x="55.2192383" y="225">0</tspan>
                <tspan x="55.2192383" y="237">1</tspan>
                <tspan x="55.2192383" y="249">0</tspan>
                <tspan x="55.2192383" y="261">1</tspan>
                <tspan x="55.2192383" y="273">0</tspan>
                <tspan x="55.5878906" y="285">1</tspan>
                <tspan x="55.2192383" y="297">1</tspan>
                <tspan x="55.2192383" y="309">0</tspan>
                <tspan x="55.2192383" y="321">1</tspan>
                <tspan x="55.2192383" y="333">0</tspan>
                <tspan x="55.2192383" y="345">1</tspan>
                <tspan x="55.2192383" y="357">0</tspan>
                <tspan x="55.2192383" y="369">1</tspan>
                <tspan x="55.2192383" y="381">0</tspan>
                <tspan x="55.5878906" y="393">1</tspan>
                <tspan x="55.2192383" y="405">1</tspan>
            </text>
            <text id="010101011-010101011-copy-4">
                <tspan x="144.219238" y="200">0</tspan>
                <tspan x="144.219238" y="212">1</tspan>
                <tspan x="144.219238" y="224">0</tspan>
                <tspan x="144.219238" y="236">1</tspan>
                <tspan x="144.219238" y="248">0</tspan>
                <tspan x="144.219238" y="260">1</tspan>
                <tspan x="144.219238" y="272">0</tspan>
                <tspan x="144.587891" y="284">1</tspan>
                <tspan x="144.219238" y="296">1</tspan>
                <tspan x="144.219238" y="308">0</tspan>
                <tspan x="144.219238" y="320">1</tspan>
                <tspan x="144.219238" y="332">0</tspan>
                <tspan x="144.219238" y="344">1</tspan>
                <tspan x="144.219238" y="356">0</tspan>
                <tspan x="144.219238" y="368">1</tspan>
                <tspan x="144.219238" y="380">0</tspan>
                <tspan x="144.587891" y="392">1</tspan>
                <tspan x="144.219238" y="404">1</tspan>
                <tspan x="144.219238" y="416">0</tspan>
                <tspan x="144.219238" y="428">1</tspan>
                <tspan x="144.219238" y="440">0</tspan>
                <tspan x="144.219238" y="452">1</tspan>
                <tspan x="144.219238" y="464">0</tspan>
                <tspan x="144.219238" y="476">1</tspan>
                <tspan x="144.219238" y="488">0</tspan>
                <tspan x="144.587891" y="500">1</tspan>
                <tspan x="144.219238" y="512">1</tspan>
            </text>
        </g>
        <g id="Group" transform="translate(953.000000, 48.000000)" fill="#FFFFFF" font-family="Helvetica" font-size="10" font-weight="normal">
            <text id="010101011-010101011-copy-9">
                <tspan x="2.21923828" y="10">0</tspan>
                <tspan x="2.21923828" y="22">1</tspan>
                <tspan x="2.21923828" y="34">0</tspan>
                <tspan x="2.21923828" y="46">1</tspan>
                <tspan x="2.21923828" y="58">0</tspan>
                <tspan x="2.21923828" y="70">1</tspan>
                <tspan x="2.21923828" y="82">0</tspan>
                <tspan x="2.58789062" y="94">1</tspan>
                <tspan x="2.21923828" y="106">1</tspan>
                <tspan x="2.21923828" y="118">0</tspan>
                <tspan x="2.21923828" y="130">1</tspan>
                <tspan x="2.21923828" y="142">0</tspan>
                <tspan x="2.21923828" y="154">1</tspan>
                <tspan x="2.21923828" y="166">0</tspan>
                <tspan x="2.21923828" y="178">1</tspan>
                <tspan x="2.21923828" y="190">0</tspan>
                <tspan x="2.58789062" y="202">1</tspan>
                <tspan x="2.21923828" y="214">1</tspan>
                <tspan x="2.21923828" y="226">0</tspan>
                <tspan x="2.21923828" y="238">1</tspan>
                <tspan x="2.21923828" y="250">0</tspan>
                <tspan x="2.21923828" y="262">1</tspan>
                <tspan x="2.21923828" y="274">0</tspan>
                <tspan x="2.21923828" y="286">1</tspan>
                <tspan x="2.21923828" y="298">0</tspan>
                <tspan x="2.58789062" y="310">1</tspan>
                <tspan x="2.21923828" y="322">1</tspan>
            </text>
            <text id="010101011-010101011-copy-8">
                <tspan x="55.2192383" y="93">0</tspan>
                <tspan x="55.2192383" y="105">1</tspan>
                <tspan x="55.2192383" y="117">0</tspan>
                <tspan x="55.2192383" y="129">1</tspan>
                <tspan x="55.2192383" y="141">0</tspan>
                <tspan x="55.2192383" y="153">1</tspan>
                <tspan x="55.2192383" y="165">0</tspan>
                <tspan x="55.5878906" y="177">1</tspan>
                <tspan x="55.2192383" y="189">1</tspan>
                <tspan x="55.2192383" y="201">0</tspan>
                <tspan x="55.2192383" y="213">1</tspan>
                <tspan x="55.2192383" y="225">0</tspan>
                <tspan x="55.2192383" y="237">1</tspan>
                <tspan x="55.2192383" y="249">0</tspan>
                <tspan x="55.2192383" y="261">1</tspan>
                <tspan x="55.2192383" y="273">0</tspan>
                <tspan x="55.5878906" y="285">1</tspan>
                <tspan x="55.2192383" y="297">1</tspan>
                <tspan x="55.2192383" y="309">0</tspan>
                <tspan x="55.2192383" y="321">1</tspan>
                <tspan x="55.2192383" y="333">0</tspan>
                <tspan x="55.2192383" y="345">1</tspan>
                <tspan x="55.2192383" y="357">0</tspan>
                <tspan x="55.2192383" y="369">1</tspan>
                <tspan x="55.2192383" y="381">0</tspan>
                <tspan x="55.5878906" y="393">1</tspan>
                <tspan x="55.2192383" y="405">1</tspan>
            </text>
            <text id="010101011-010101011-copy-7">
                <tspan x="144.219238" y="200">0</tspan>
                <tspan x="144.219238" y="212">1</tspan>
                <tspan x="144.219238" y="224">0</tspan>
                <tspan x="144.219238" y="236">1</tspan>
                <tspan x="144.219238" y="248">0</tspan>
                <tspan x="144.219238" y="260">1</tspan>
                <tspan x="144.219238" y="272">0</tspan>
                <tspan x="144.587891" y="284">1</tspan>
                <tspan x="144.219238" y="296">1</tspan>
                <tspan x="144.219238" y="308">0</tspan>
                <tspan x="144.219238" y="320">1</tspan>
                <tspan x="144.219238" y="332">0</tspan>
                <tspan x="144.219238" y="344">1</tspan>
                <tspan x="144.219238" y="356">0</tspan>
                <tspan x="144.219238" y="368">1</tspan>
                <tspan x="144.219238" y="380">0</tspan>
                <tspan x="144.587891" y="392">1</tspan>
                <tspan x="144.219238" y="404">1</tspan>
                <tspan x="144.219238" y="416">0</tspan>
                <tspan x="144.219238" y="428">1</tspan>
                <tspan x="144.219238" y="440">0</tspan>
                <tspan x="144.219238" y="452">1</tspan>
                <tspan x="144.219238" y="464">0</tspan>
                <tspan x="144.219238" y="476">1</tspan>
                <tspan x="144.219238" y="488">0</tspan>
                <tspan x="144.587891" y="500">1</tspan>
                <tspan x="144.219238" y="512">1</tspan>
            </text>
        </g>
        <g id="Group-Copy" transform="translate(1260.000000, 343.000000)" fill="#FFFFFF" font-family="Helvetica" font-size="10" font-weight="normal">
            <text id="010101011-010101011-copy-9">
                <tspan x="2.21923828" y="10">0</tspan>
                <tspan x="2.21923828" y="22">1</tspan>
                <tspan x="2.21923828" y="34">0</tspan>
                <tspan x="2.21923828" y="46">1</tspan>
                <tspan x="2.21923828" y="58">0</tspan>
                <tspan x="2.21923828" y="70">1</tspan>
                <tspan x="2.21923828" y="82">0</tspan>
                <tspan x="2.58789062" y="94">1</tspan>
                <tspan x="2.21923828" y="106">1</tspan>
                <tspan x="2.21923828" y="118">0</tspan>
                <tspan x="2.21923828" y="130">1</tspan>
                <tspan x="2.21923828" y="142">0</tspan>
                <tspan x="2.21923828" y="154">1</tspan>
                <tspan x="2.21923828" y="166">0</tspan>
                <tspan x="2.21923828" y="178">1</tspan>
                <tspan x="2.21923828" y="190">0</tspan>
                <tspan x="2.58789062" y="202">1</tspan>
                <tspan x="2.21923828" y="214">1</tspan>
                <tspan x="2.21923828" y="226">0</tspan>
                <tspan x="2.21923828" y="238">1</tspan>
                <tspan x="2.21923828" y="250">0</tspan>
                <tspan x="2.21923828" y="262">1</tspan>
                <tspan x="2.21923828" y="274">0</tspan>
                <tspan x="2.21923828" y="286">1</tspan>
                <tspan x="2.21923828" y="298">0</tspan>
                <tspan x="2.58789062" y="310">1</tspan>
                <tspan x="2.21923828" y="322">1</tspan>
            </text>
            <text id="010101011-010101011-copy-8">
                <tspan x="55.2192383" y="93">0</tspan>
                <tspan x="55.2192383" y="105">1</tspan>
                <tspan x="55.2192383" y="117">0</tspan>
                <tspan x="55.2192383" y="129">1</tspan>
                <tspan x="55.2192383" y="141">0</tspan>
                <tspan x="55.2192383" y="153">1</tspan>
                <tspan x="55.2192383" y="165">0</tspan>
                <tspan x="55.5878906" y="177">1</tspan>
                <tspan x="55.2192383" y="189">1</tspan>
                <tspan x="55.2192383" y="201">0</tspan>
                <tspan x="55.2192383" y="213">1</tspan>
                <tspan x="55.2192383" y="225">0</tspan>
                <tspan x="55.2192383" y="237">1</tspan>
                <tspan x="55.2192383" y="249">0</tspan>
                <tspan x="55.2192383" y="261">1</tspan>
                <tspan x="55.2192383" y="273">0</tspan>
                <tspan x="55.5878906" y="285">1</tspan>
                <tspan x="55.2192383" y="297">1</tspan>
                <tspan x="55.2192383" y="309">0</tspan>
                <tspan x="55.2192383" y="321">1</tspan>
                <tspan x="55.2192383" y="333">0</tspan>
                <tspan x="55.2192383" y="345">1</tspan>
                <tspan x="55.2192383" y="357">0</tspan>
                <tspan x="55.2192383" y="369">1</tspan>
                <tspan x="55.2192383" y="381">0</tspan>
                <tspan x="55.5878906" y="393">1</tspan>
                <tspan x="55.2192383" y="405">1</tspan>
            </text>
            <text id="010101011-010101011-copy-7">
                <tspan x="144.219238" y="200">0</tspan>
                <tspan x="144.219238" y="212">1</tspan>
                <tspan x="144.219238" y="224">0</tspan>
                <tspan x="144.219238" y="236">1</tspan>
                <tspan x="144.219238" y="248">0</tspan>
                <tspan x="144.219238" y="260">1</tspan>
                <tspan x="144.219238" y="272">0</tspan>
                <tspan x="144.587891" y="284">1</tspan>
                <tspan x="144.219238" y="296">1</tspan>
                <tspan x="144.219238" y="308">0</tspan>
                <tspan x="144.219238" y="320">1</tspan>
                <tspan x="144.219238" y="332">0</tspan>
                <tspan x="144.219238" y="344">1</tspan>
                <tspan x="144.219238" y="356">0</tspan>
                <tspan x="144.219238" y="368">1</tspan>
                <tspan x="144.219238" y="380">0</tspan>
                <tspan x="144.587891" y="392">1</tspan>
                <tspan x="144.219238" y="404">1</tspan>
                <tspan x="144.219238" y="416">0</tspan>
                <tspan x="144.219238" y="428">1</tspan>
                <tspan x="144.219238" y="440">0</tspan>
                <tspan x="144.219238" y="452">1</tspan>
                <tspan x="144.219238" y="464">0</tspan>
                <tspan x="144.219238" y="476">1</tspan>
                <tspan x="144.219238" y="488">0</tspan>
                <tspan x="144.587891" y="500">1</tspan>
                <tspan x="144.219238" y="512">1</tspan>
            </text>
        </g>
    </g>
</svg>