<?xml version="1.0" encoding="UTF-8"?>
<svg width="255px" height="844px" viewBox="0 0 255 844" version="1.1" xmlns="http://www.w3.org/2000/svg" xmlns:xlink="http://www.w3.org/1999/xlink">
    <title>Matrix-Background-Mobile</title>
    <g id="Matrix-Background-Mobile" stroke="none" stroke-width="1" fill="none" fill-rule="evenodd">
        <rect fill="#333333" x="0" y="0" width="255" height="844"></rect>
        <text id="010101011-010101011" transform="translate(57.000000, 53.000000) rotate(90.000000) translate(-57.000000, -53.000000) " font-family="Helvetica" font-size="10" font-weight="normal" fill="#FFFFFF">
            <tspan x="54.2192383" y="-56">0</tspan>
            <tspan x="54.2192383" y="-44">1</tspan>
            <tspan x="54.2192383" y="-32">0</tspan>
            <tspan x="54.2192383" y="-20">1</tspan>
            <tspan x="54.2192383" y="-8">0</tspan>
            <tspan x="54.2192383" y="4">1</tspan>
            <tspan x="54.2192383" y="16">0</tspan>
            <tspan x="54.5878906" y="28">1</tspan>
            <tspan x="54.2192383" y="40">1</tspan>
            <tspan x="54.2192383" y="52">0</tspan>
            <tspan x="54.2192383" y="64">1</tspan>
            <tspan x="54.2192383" y="76">0</tspan>
            <tspan x="54.2192383" y="88">1</tspan>
            <tspan x="54.2192383" y="100">0</tspan>
            <tspan x="54.2192383" y="112">1</tspan>
            <tspan x="54.2192383" y="124">0</tspan>
            <tspan x="54.5878906" y="136">1</tspan>
            <tspan x="54.2192383" y="148">1</tspan>
            <tspan x="54.2192383" y="160">0</tspan>
            <tspan x="54.2192383" y="172">1</tspan>
            <tspan x="54.2192383" y="184">0</tspan>
            <tspan x="54.2192383" y="196">1</tspan>
            <tspan x="54.2192383" y="208">0</tspan>
            <tspan x="54.2192383" y="220">1</tspan>
            <tspan x="54.2192383" y="232">0</tspan>
            <tspan x="54.5878906" y="244">1</tspan>
            <tspan x="54.2192383" y="256">1</tspan>
        </text>
        <text id="010101011-010101011-copy" transform="translate(110.000000, 136.000000) rotate(90.000000) translate(-110.000000, -136.000000) " font-family="Helvetica" font-size="10" font-weight="normal" fill="#FFFFFF">
            <tspan x="107.219238" y="27">0</tspan>
            <tspan x="107.219238" y="39">1</tspan>
            <tspan x="107.219238" y="51">0</tspan>
            <tspan x="107.219238" y="63">1</tspan>
            <tspan x="107.219238" y="75">0</tspan>
            <tspan x="107.219238" y="87">1</tspan>
            <tspan x="107.219238" y="99">0</tspan>
            <tspan x="107.587891" y="111">1</tspan>
            <tspan x="107.219238" y="123">1</tspan>
            <tspan x="107.219238" y="135">0</tspan>
            <tspan x="107.219238" y="147">1</tspan>
            <tspan x="107.219238" y="159">0</tspan>
            <tspan x="107.219238" y="171">1</tspan>
            <tspan x="107.219238" y="183">0</tspan>
            <tspan x="107.219238" y="195">1</tspan>
            <tspan x="107.219238" y="207">0</tspan>
            <tspan x="107.587891" y="219">1</tspan>
            <tspan x="107.219238" y="231">1</tspan>
            <tspan x="107.219238" y="243">0</tspan>
            <tspan x="107.219238" y="255">1</tspan>
            <tspan x="107.219238" y="267">0</tspan>
            <tspan x="107.219238" y="279">1</tspan>
            <tspan x="107.219238" y="291">0</tspan>
            <tspan x="107.219238" y="303">1</tspan>
            <tspan x="107.219238" y="315">0</tspan>
            <tspan x="107.587891" y="327">1</tspan>
            <tspan x="107.219238" y="339">1</tspan>
        </text>
        <text id="010101011-010101011-copy-3" transform="translate(199.000000, 243.000000) rotate(90.000000) translate(-199.000000, -243.000000) " font-family="Helvetica" font-size="10" font-weight="normal" fill="#FFFFFF">
            <tspan x="196.219238" y="134">0</tspan>
            <tspan x="196.219238" y="146">1</tspan>
            <tspan x="196.219238" y="158">0</tspan>
            <tspan x="196.219238" y="170">1</tspan>
            <tspan x="196.219238" y="182">0</tspan>
            <tspan x="196.219238" y="194">1</tspan>
            <tspan x="196.219238" y="206">0</tspan>
            <tspan x="196.587891" y="218">1</tspan>
            <tspan x="196.219238" y="230">1</tspan>
            <tspan x="196.219238" y="242">0</tspan>
            <tspan x="196.219238" y="254">1</tspan>
            <tspan x="196.219238" y="266">0</tspan>
            <tspan x="196.219238" y="278">1</tspan>
            <tspan x="196.219238" y="290">0</tspan>
            <tspan x="196.219238" y="302">1</tspan>
            <tspan x="196.219238" y="314">0</tspan>
            <tspan x="196.587891" y="326">1</tspan>
            <tspan x="196.219238" y="338">1</tspan>
            <tspan x="196.219238" y="350">0</tspan>
            <tspan x="196.219238" y="362">1</tspan>
            <tspan x="196.219238" y="374">0</tspan>
            <tspan x="196.219238" y="386">1</tspan>
            <tspan x="196.219238" y="398">0</tspan>
            <tspan x="196.219238" y="410">1</tspan>
            <tspan x="196.219238" y="422">0</tspan>
            <tspan x="196.587891" y="434">1</tspan>
            <tspan x="196.219238" y="446">1</tspan>
        </text>
        <text id="010101011-010101011-copy-5" transform="translate(23.000000, 314.000000) rotate(90.000000) translate(-23.000000, -314.000000) " font-family="Helvetica" font-size="10" font-weight="normal" fill="#FFFFFF">
            <tspan x="20.2192383" y="205">0</tspan>
            <tspan x="20.2192383" y="217">1</tspan>
            <tspan x="20.2192383" y="229">0</tspan>
            <tspan x="20.2192383" y="241">1</tspan>
            <tspan x="20.2192383" y="253">0</tspan>
            <tspan x="20.2192383" y="265">1</tspan>
            <tspan x="20.2192383" y="277">0</tspan>
            <tspan x="20.5878906" y="289">1</tspan>
            <tspan x="20.2192383" y="301">1</tspan>
            <tspan x="20.2192383" y="313">0</tspan>
            <tspan x="20.2192383" y="325">1</tspan>
            <tspan x="20.2192383" y="337">0</tspan>
            <tspan x="20.2192383" y="349">1</tspan>
            <tspan x="20.2192383" y="361">0</tspan>
            <tspan x="20.2192383" y="373">1</tspan>
            <tspan x="20.2192383" y="385">0</tspan>
            <tspan x="20.5878906" y="397">1</tspan>
            <tspan x="20.2192383" y="409">1</tspan>
            <tspan x="20.2192383" y="421">0</tspan>
            <tspan x="20.2192383" y="433">1</tspan>
            <tspan x="20.2192383" y="445">0</tspan>
            <tspan x="20.2192383" y="457">1</tspan>
            <tspan x="20.2192383" y="469">0</tspan>
            <tspan x="20.2192383" y="481">1</tspan>
            <tspan x="20.2192383" y="493">0</tspan>
            <tspan x="20.5878906" y="505">1</tspan>
            <tspan x="20.2192383" y="517">1</tspan>
        </text>
        <text id="010101011-010101011-copy-2" transform="translate(76.000000, 397.000000) rotate(90.000000) translate(-76.000000, -397.000000) " font-family="Helvetica" font-size="10" font-weight="normal" fill="#FFFFFF">
            <tspan x="73.2192383" y="288">0</tspan>
            <tspan x="73.2192383" y="300">1</tspan>
            <tspan x="73.2192383" y="312">0</tspan>
            <tspan x="73.2192383" y="324">1</tspan>
            <tspan x="73.2192383" y="336">0</tspan>
            <tspan x="73.2192383" y="348">1</tspan>
            <tspan x="73.2192383" y="360">0</tspan>
            <tspan x="73.5878906" y="372">1</tspan>
            <tspan x="73.2192383" y="384">1</tspan>
            <tspan x="73.2192383" y="396">0</tspan>
            <tspan x="73.2192383" y="408">1</tspan>
            <tspan x="73.2192383" y="420">0</tspan>
            <tspan x="73.2192383" y="432">1</tspan>
            <tspan x="73.2192383" y="444">0</tspan>
            <tspan x="73.2192383" y="456">1</tspan>
            <tspan x="73.2192383" y="468">0</tspan>
            <tspan x="73.5878906" y="480">1</tspan>
            <tspan x="73.2192383" y="492">1</tspan>
            <tspan x="73.2192383" y="504">0</tspan>
            <tspan x="73.2192383" y="516">1</tspan>
            <tspan x="73.2192383" y="528">0</tspan>
            <tspan x="73.2192383" y="540">1</tspan>
            <tspan x="73.2192383" y="552">0</tspan>
            <tspan x="73.2192383" y="564">1</tspan>
            <tspan x="73.2192383" y="576">0</tspan>
            <tspan x="73.5878906" y="588">1</tspan>
            <tspan x="73.2192383" y="600">1</tspan>
        </text>
        <text id="010101011-010101011-copy-4" transform="translate(165.000000, 504.000000) rotate(90.000000) translate(-165.000000, -504.000000) " font-family="Helvetica" font-size="10" font-weight="normal" fill="#FFFFFF">
            <tspan x="162.219238" y="395">0</tspan>
            <tspan x="162.219238" y="407">1</tspan>
            <tspan x="162.219238" y="419">0</tspan>
            <tspan x="162.219238" y="431">1</tspan>
            <tspan x="162.219238" y="443">0</tspan>
            <tspan x="162.219238" y="455">1</tspan>
            <tspan x="162.219238" y="467">0</tspan>
            <tspan x="162.587891" y="479">1</tspan>
            <tspan x="162.219238" y="491">1</tspan>
            <tspan x="162.219238" y="503">0</tspan>
            <tspan x="162.219238" y="515">1</tspan>
            <tspan x="162.219238" y="527">0</tspan>
            <tspan x="162.219238" y="539">1</tspan>
            <tspan x="162.219238" y="551">0</tspan>
            <tspan x="162.219238" y="563">1</tspan>
            <tspan x="162.219238" y="575">0</tspan>
            <tspan x="162.587891" y="587">1</tspan>
            <tspan x="162.219238" y="599">1</tspan>
            <tspan x="162.219238" y="611">0</tspan>
            <tspan x="162.219238" y="623">1</tspan>
            <tspan x="162.219238" y="635">0</tspan>
            <tspan x="162.219238" y="647">1</tspan>
            <tspan x="162.219238" y="659">0</tspan>
            <tspan x="162.219238" y="671">1</tspan>
            <tspan x="162.219238" y="683">0</tspan>
            <tspan x="162.587891" y="695">1</tspan>
            <tspan x="162.219238" y="707">1</tspan>
        </text>
        <text id="010101011-010101011-copy-8" transform="translate(141.000000, 625.000000) rotate(90.000000) translate(-141.000000, -625.000000) " font-family="Helvetica" font-size="10" font-weight="normal" fill="#FFFFFF">
            <tspan x="138.219238" y="516">0</tspan>
            <tspan x="138.219238" y="528">1</tspan>
            <tspan x="138.219238" y="540">0</tspan>
            <tspan x="138.219238" y="552">1</tspan>
            <tspan x="138.219238" y="564">0</tspan>
            <tspan x="138.219238" y="576">1</tspan>
            <tspan x="138.219238" y="588">0</tspan>
            <tspan x="138.587891" y="600">1</tspan>
            <tspan x="138.219238" y="612">1</tspan>
            <tspan x="138.219238" y="624">0</tspan>
            <tspan x="138.219238" y="636">1</tspan>
            <tspan x="138.219238" y="648">0</tspan>
            <tspan x="138.219238" y="660">1</tspan>
            <tspan x="138.219238" y="672">0</tspan>
            <tspan x="138.219238" y="684">1</tspan>
            <tspan x="138.219238" y="696">0</tspan>
            <tspan x="138.587891" y="708">1</tspan>
            <tspan x="138.219238" y="720">1</tspan>
            <tspan x="138.219238" y="732">0</tspan>
            <tspan x="138.219238" y="744">1</tspan>
            <tspan x="138.219238" y="756">0</tspan>
            <tspan x="138.219238" y="768">1</tspan>
            <tspan x="138.219238" y="780">0</tspan>
            <tspan x="138.219238" y="792">1</tspan>
            <tspan x="138.219238" y="804">0</tspan>
            <tspan x="138.587891" y="816">1</tspan>
            <tspan x="138.219238" y="828">1</tspan>
        </text>
        <text id="010101011-010101011-copy-7" transform="translate(194.000000, 708.000000) rotate(90.000000) translate(-194.000000, -708.000000) " font-family="Helvetica" font-size="10" font-weight="normal" fill="#FFFFFF">
            <tspan x="191.219238" y="599">0</tspan>
            <tspan x="191.219238" y="611">1</tspan>
            <tspan x="191.219238" y="623">0</tspan>
            <tspan x="191.219238" y="635">1</tspan>
            <tspan x="191.219238" y="647">0</tspan>
            <tspan x="191.219238" y="659">1</tspan>
            <tspan x="191.219238" y="671">0</tspan>
            <tspan x="191.587891" y="683">1</tspan>
            <tspan x="191.219238" y="695">1</tspan>
            <tspan x="191.219238" y="707">0</tspan>
            <tspan x="191.219238" y="719">1</tspan>
            <tspan x="191.219238" y="731">0</tspan>
            <tspan x="191.219238" y="743">1</tspan>
            <tspan x="191.219238" y="755">0</tspan>
            <tspan x="191.219238" y="767">1</tspan>
            <tspan x="191.219238" y="779">0</tspan>
            <tspan x="191.587891" y="791">1</tspan>
            <tspan x="191.219238" y="803">1</tspan>
            <tspan x="191.219238" y="815">0</tspan>
            <tspan x="191.219238" y="827">1</tspan>
            <tspan x="191.219238" y="839">0</tspan>
            <tspan x="191.219238" y="851">1</tspan>
            <tspan x="191.219238" y="863">0</tspan>
            <tspan x="191.219238" y="875">1</tspan>
            <tspan x="191.219238" y="887">0</tspan>
            <tspan x="191.587891" y="899">1</tspan>
            <tspan x="191.219238" y="911">1</tspan>
        </text>
        <text id="010101011-010101011-copy-6" transform="translate(283.000000, 815.000000) rotate(90.000000) translate(-283.000000, -815.000000) " font-family="Helvetica" font-size="10" font-weight="normal" fill="#FFFFFF">
            <tspan x="280.219238" y="706">0</tspan>
            <tspan x="280.219238" y="718">1</tspan>
            <tspan x="280.219238" y="730">0</tspan>
            <tspan x="280.219238" y="742">1</tspan>
            <tspan x="280.219238" y="754">0</tspan>
            <tspan x="280.219238" y="766">1</tspan>
            <tspan x="280.219238" y="778">0</tspan>
            <tspan x="280.587891" y="790">1</tspan>
            <tspan x="280.219238" y="802">1</tspan>
            <tspan x="280.219238" y="814">0</tspan>
            <tspan x="280.219238" y="826">1</tspan>
            <tspan x="280.219238" y="838">0</tspan>
            <tspan x="280.219238" y="850">1</tspan>
            <tspan x="280.219238" y="862">0</tspan>
            <tspan x="280.219238" y="874">1</tspan>
            <tspan x="280.219238" y="886">0</tspan>
            <tspan x="280.587891" y="898">1</tspan>
            <tspan x="280.219238" y="910">1</tspan>
            <tspan x="280.219238" y="922">0</tspan>
            <tspan x="280.219238" y="934">1</tspan>
            <tspan x="280.219238" y="946">0</tspan>
            <tspan x="280.219238" y="958">1</tspan>
            <tspan x="280.219238" y="970">0</tspan>
            <tspan x="280.219238" y="982">1</tspan>
            <tspan x="280.219238" y="994">0</tspan>
            <tspan x="280.587891" y="1006">1</tspan>
            <tspan x="280.219238" y="1018">1</tspan>
        </text>
    </g>
</svg>