<?xml version="1.0" encoding="UTF-8"?>
<svg width="1500px" height="844px" viewBox="0 0 1500 844" version="1.1" xmlns="http://www.w3.org/2000/svg" xmlns:xlink="http://www.w3.org/1999/xlink">
    <title>Matrix Background</title>
    <g id="Matrix-Background" stroke="none" stroke-width="1" fill="none" fill-rule="evenodd">
        <rect fill="#333333" x="0" y="0" width="1500" height="844"></rect>
        <text id="010101011-010101011" font-family="Helvetica" font-size="10" font-weight="normal" fill="#FFFFFF">
            <tspan x="88.2192383" y="106">0</tspan>
            <tspan x="88.2192383" y="118">1</tspan>
            <tspan x="88.2192383" y="130">0</tspan>
            <tspan x="88.2192383" y="142">1</tspan>
            <tspan x="88.2192383" y="154">0</tspan>
            <tspan x="88.2192383" y="166">1</tspan>
            <tspan x="88.2192383" y="178">0</tspan>
            <tspan x="88.5878906" y="190">1</tspan>
            <tspan x="88.2192383" y="202">1</tspan>
            <tspan x="88.2192383" y="214">0</tspan>
            <tspan x="88.2192383" y="226">1</tspan>
            <tspan x="88.2192383" y="238">0</tspan>
            <tspan x="88.2192383" y="250">1</tspan>
            <tspan x="88.2192383" y="262">0</tspan>
            <tspan x="88.2192383" y="274">1</tspan>
            <tspan x="88.2192383" y="286">0</tspan>
            <tspan x="88.5878906" y="298">1</tspan>
            <tspan x="88.2192383" y="310">1</tspan>
            <tspan x="88.2192383" y="322">0</tspan>
            <tspan x="88.2192383" y="334">1</tspan>
            <tspan x="88.2192383" y="346">0</tspan>
            <tspan x="88.2192383" y="358">1</tspan>
            <tspan x="88.2192383" y="370">0</tspan>
            <tspan x="88.2192383" y="382">1</tspan>
            <tspan x="88.2192383" y="394">0</tspan>
            <tspan x="88.5878906" y="406">1</tspan>
            <tspan x="88.2192383" y="418">1</tspan>
        </text>
    </g>
</svg>