<?xml version="1.0" encoding="UTF-8"?>
<svg width="1500px" height="844px" viewBox="0 0 1500 844" version="1.1" xmlns="http://www.w3.org/2000/svg" xmlns:xlink="http://www.w3.org/1999/xlink">
    <title>Matrix-Background</title>
    <defs>
        <linearGradient x1="50%" y1="53.5750426%" x2="80.896476%" y2="101.266728%" id="linearGradient-1">
            <stop stop-color="#000000" offset="0%"></stop>
            <stop stop-color="#55165A" offset="100%"></stop>
        </linearGradient>
    </defs>
    <g id="Matrix-Background" stroke="none" stroke-width="1" fill="none" fill-rule="evenodd">
        <rect id="Rectangle" fill="url(#linearGradient-1)" x="0" y="0" width="1500" height="843"></rect>
        <text id="number-line-copy-3" font-family="Helvetica" font-size="10" font-weight="normal" fill="#FFFFFF">
            <tspan x="170.219238" y="519">0</tspan>
            <tspan x="170.219238" y="531">1</tspan>
            <tspan x="170.219238" y="543">0</tspan>
            <tspan x="170.219238" y="555">1</tspan>
            <tspan x="170.219238" y="567">0</tspan>
            <tspan x="170.219238" y="579">1</tspan>
            <tspan x="170.219238" y="591">0</tspan>
            <tspan x="170.587891" y="603">1</tspan>
            <tspan x="170.219238" y="615">1</tspan>
            <tspan x="170.219238" y="627">0</tspan>
            <tspan x="170.219238" y="639">1</tspan>
            <tspan x="170.219238" y="651">0</tspan>
            <tspan x="170.219238" y="663">1</tspan>
            <tspan x="170.219238" y="675">0</tspan>
            <tspan x="170.219238" y="687">1</tspan>
            <tspan x="170.219238" y="699">0</tspan>
            <tspan x="170.587891" y="711">1</tspan>
            <tspan x="170.219238" y="723">1</tspan>
            <tspan x="170.219238" y="735">0</tspan>
            <tspan x="170.219238" y="747">1</tspan>
            <tspan x="170.219238" y="759">0</tspan>
            <tspan x="170.219238" y="771">1</tspan>
            <tspan x="170.219238" y="783">0</tspan>
            <tspan x="170.219238" y="795">1</tspan>
            <tspan x="170.219238" y="807">0</tspan>
            <tspan x="170.587891" y="819">1</tspan>
            <tspan x="170.219238" y="831">1</tspan>
        </text>
        <text id="number-line-copy" font-family="Helvetica" font-size="10" font-weight="normal" fill="#FFFFFF">
            <tspan x="466.219238" y="139">0</tspan>
            <tspan x="466.219238" y="151">1</tspan>
            <tspan x="466.219238" y="163">0</tspan>
            <tspan x="466.219238" y="175">1</tspan>
            <tspan x="466.219238" y="187">0</tspan>
            <tspan x="466.219238" y="199">1</tspan>
            <tspan x="466.219238" y="211">0</tspan>
            <tspan x="466.587891" y="223">1</tspan>
            <tspan x="466.219238" y="235">1</tspan>
            <tspan x="466.219238" y="247">0</tspan>
            <tspan x="466.219238" y="259">1</tspan>
            <tspan x="466.219238" y="271">0</tspan>
            <tspan x="466.219238" y="283">1</tspan>
            <tspan x="466.219238" y="295">0</tspan>
            <tspan x="466.219238" y="307">1</tspan>
            <tspan x="466.219238" y="319">0</tspan>
            <tspan x="466.587891" y="331">1</tspan>
            <tspan x="466.219238" y="343">1</tspan>
            <tspan x="466.219238" y="355">0</tspan>
            <tspan x="466.219238" y="367">1</tspan>
            <tspan x="466.219238" y="379">0</tspan>
            <tspan x="466.219238" y="391">1</tspan>
            <tspan x="466.219238" y="403">0</tspan>
            <tspan x="466.219238" y="415">1</tspan>
            <tspan x="466.219238" y="427">0</tspan>
            <tspan x="466.587891" y="439">1</tspan>
            <tspan x="466.219238" y="451">1</tspan>
        </text>
        <text id="number-line-copy-2" font-family="Helvetica" font-size="10" font-weight="normal" fill="#FFFFFF">
            <tspan x="122.219238" y="186">0</tspan>
            <tspan x="122.219238" y="198">1</tspan>
            <tspan x="122.219238" y="210">0</tspan>
            <tspan x="122.219238" y="222">1</tspan>
            <tspan x="122.219238" y="234">0</tspan>
            <tspan x="122.219238" y="246">1</tspan>
            <tspan x="122.219238" y="258">0</tspan>
            <tspan x="122.587891" y="270">1</tspan>
            <tspan x="122.219238" y="282">1</tspan>
            <tspan x="122.219238" y="294">0</tspan>
            <tspan x="122.219238" y="306">1</tspan>
            <tspan x="122.219238" y="318">0</tspan>
            <tspan x="122.219238" y="330">1</tspan>
            <tspan x="122.219238" y="342">0</tspan>
            <tspan x="122.219238" y="354">1</tspan>
            <tspan x="122.219238" y="366">0</tspan>
            <tspan x="122.587891" y="378">1</tspan>
            <tspan x="122.219238" y="390">1</tspan>
            <tspan x="122.219238" y="402">0</tspan>
            <tspan x="122.219238" y="414">1</tspan>
            <tspan x="122.219238" y="426">0</tspan>
            <tspan x="122.219238" y="438">1</tspan>
            <tspan x="122.219238" y="450">0</tspan>
            <tspan x="122.219238" y="462">1</tspan>
            <tspan x="122.219238" y="474">0</tspan>
            <tspan x="122.587891" y="486">1</tspan>
            <tspan x="122.219238" y="498">1</tspan>
        </text>
        <text id="number-line-copy-16" font-family="Helvetica" font-size="10" font-weight="normal" fill="#FFFFFF">
            <tspan x="354.219238" y="442">0</tspan>
            <tspan x="354.219238" y="454">1</tspan>
            <tspan x="354.219238" y="466">0</tspan>
            <tspan x="354.219238" y="478">1</tspan>
            <tspan x="354.219238" y="490">0</tspan>
            <tspan x="354.219238" y="502">1</tspan>
            <tspan x="354.219238" y="514">0</tspan>
            <tspan x="354.587891" y="526">1</tspan>
            <tspan x="354.219238" y="538">1</tspan>
            <tspan x="354.219238" y="550">0</tspan>
            <tspan x="354.219238" y="562">1</tspan>
            <tspan x="354.219238" y="574">0</tspan>
            <tspan x="354.219238" y="586">1</tspan>
            <tspan x="354.219238" y="598">0</tspan>
            <tspan x="354.219238" y="610">1</tspan>
            <tspan x="354.219238" y="622">0</tspan>
            <tspan x="354.587891" y="634">1</tspan>
            <tspan x="354.219238" y="646">1</tspan>
            <tspan x="354.219238" y="658">0</tspan>
            <tspan x="354.219238" y="670">1</tspan>
            <tspan x="354.219238" y="682">0</tspan>
            <tspan x="354.219238" y="694">1</tspan>
            <tspan x="354.219238" y="706">0</tspan>
            <tspan x="354.219238" y="718">1</tspan>
            <tspan x="354.219238" y="730">0</tspan>
            <tspan x="354.587891" y="742">1</tspan>
            <tspan x="354.219238" y="754">1</tspan>
        </text>
        <text id="number-line-copy-15" font-family="Helvetica" font-size="10" font-weight="normal" fill="#FFFFFF">
            <tspan x="638.219238" y="201">0</tspan>
            <tspan x="638.219238" y="213">1</tspan>
            <tspan x="638.219238" y="225">0</tspan>
            <tspan x="638.219238" y="237">1</tspan>
            <tspan x="638.219238" y="249">0</tspan>
            <tspan x="638.219238" y="261">1</tspan>
            <tspan x="638.219238" y="273">0</tspan>
            <tspan x="638.587891" y="285">1</tspan>
            <tspan x="638.219238" y="297">1</tspan>
            <tspan x="638.219238" y="309">0</tspan>
            <tspan x="638.219238" y="321">1</tspan>
            <tspan x="638.219238" y="333">0</tspan>
            <tspan x="638.219238" y="345">1</tspan>
            <tspan x="638.219238" y="357">0</tspan>
            <tspan x="638.219238" y="369">1</tspan>
            <tspan x="638.219238" y="381">0</tspan>
            <tspan x="638.587891" y="393">1</tspan>
            <tspan x="638.219238" y="405">1</tspan>
            <tspan x="638.219238" y="417">0</tspan>
            <tspan x="638.219238" y="429">1</tspan>
            <tspan x="638.219238" y="441">0</tspan>
            <tspan x="638.219238" y="453">1</tspan>
            <tspan x="638.219238" y="465">0</tspan>
            <tspan x="638.219238" y="477">1</tspan>
            <tspan x="638.219238" y="489">0</tspan>
            <tspan x="638.587891" y="501">1</tspan>
            <tspan x="638.219238" y="513">1</tspan>
        </text>
        <text id="number-line-copy-14" font-family="Helvetica" font-size="10" font-weight="normal" fill="#FFFFFF">
            <tspan x="282.219238" y="130">0</tspan>
            <tspan x="282.219238" y="142">1</tspan>
            <tspan x="282.219238" y="154">0</tspan>
            <tspan x="282.219238" y="166">1</tspan>
            <tspan x="282.219238" y="178">0</tspan>
            <tspan x="282.219238" y="190">1</tspan>
            <tspan x="282.219238" y="202">0</tspan>
            <tspan x="282.587891" y="214">1</tspan>
            <tspan x="282.219238" y="226">1</tspan>
            <tspan x="282.219238" y="238">0</tspan>
            <tspan x="282.219238" y="250">1</tspan>
            <tspan x="282.219238" y="262">0</tspan>
            <tspan x="282.219238" y="274">1</tspan>
            <tspan x="282.219238" y="286">0</tspan>
            <tspan x="282.219238" y="298">1</tspan>
            <tspan x="282.219238" y="310">0</tspan>
            <tspan x="282.587891" y="322">1</tspan>
            <tspan x="282.219238" y="334">1</tspan>
            <tspan x="282.219238" y="346">0</tspan>
            <tspan x="282.219238" y="358">1</tspan>
            <tspan x="282.219238" y="370">0</tspan>
            <tspan x="282.219238" y="382">1</tspan>
            <tspan x="282.219238" y="394">0</tspan>
            <tspan x="282.219238" y="406">1</tspan>
            <tspan x="282.219238" y="418">0</tspan>
            <tspan x="282.587891" y="430">1</tspan>
            <tspan x="282.219238" y="442">1</tspan>
        </text>
        <text id="number-line-copy-7" font-family="Helvetica" font-size="10" font-weight="normal" fill="#FFFFFF">
            <tspan x="1075.21924" y="58">0</tspan>
            <tspan x="1075.21924" y="70">1</tspan>
            <tspan x="1075.21924" y="82">0</tspan>
            <tspan x="1075.21924" y="94">1</tspan>
            <tspan x="1075.21924" y="106">0</tspan>
            <tspan x="1075.21924" y="118">1</tspan>
            <tspan x="1075.21924" y="130">0</tspan>
            <tspan x="1075.58789" y="142">1</tspan>
            <tspan x="1075.21924" y="154">1</tspan>
            <tspan x="1075.21924" y="166">0</tspan>
            <tspan x="1075.21924" y="178">1</tspan>
            <tspan x="1075.21924" y="190">0</tspan>
            <tspan x="1075.21924" y="202">1</tspan>
            <tspan x="1075.21924" y="214">0</tspan>
            <tspan x="1075.21924" y="226">1</tspan>
            <tspan x="1075.21924" y="238">0</tspan>
            <tspan x="1075.58789" y="250">1</tspan>
            <tspan x="1075.21924" y="262">1</tspan>
            <tspan x="1075.21924" y="274">0</tspan>
            <tspan x="1075.21924" y="286">1</tspan>
            <tspan x="1075.21924" y="298">0</tspan>
            <tspan x="1075.21924" y="310">1</tspan>
            <tspan x="1075.21924" y="322">0</tspan>
            <tspan x="1075.21924" y="334">1</tspan>
            <tspan x="1075.21924" y="346">0</tspan>
            <tspan x="1075.58789" y="358">1</tspan>
            <tspan x="1075.21924" y="370">1</tspan>
        </text>
        <text id="number-line-copy-6" font-family="Helvetica" font-size="10" font-weight="normal" fill="#FFFFFF">
            <tspan x="798.219238" y="111">0</tspan>
            <tspan x="798.219238" y="123">1</tspan>
            <tspan x="798.219238" y="135">0</tspan>
            <tspan x="798.219238" y="147">1</tspan>
            <tspan x="798.219238" y="159">0</tspan>
            <tspan x="798.219238" y="171">1</tspan>
            <tspan x="798.219238" y="183">0</tspan>
            <tspan x="798.587891" y="195">1</tspan>
            <tspan x="798.219238" y="207">1</tspan>
            <tspan x="798.219238" y="219">0</tspan>
            <tspan x="798.219238" y="231">1</tspan>
            <tspan x="798.219238" y="243">0</tspan>
            <tspan x="798.219238" y="255">1</tspan>
            <tspan x="798.219238" y="267">0</tspan>
            <tspan x="798.219238" y="279">1</tspan>
            <tspan x="798.219238" y="291">0</tspan>
            <tspan x="798.587891" y="303">1</tspan>
            <tspan x="798.219238" y="315">1</tspan>
            <tspan x="798.219238" y="327">0</tspan>
            <tspan x="798.219238" y="339">1</tspan>
            <tspan x="798.219238" y="351">0</tspan>
            <tspan x="798.219238" y="363">1</tspan>
            <tspan x="798.219238" y="375">0</tspan>
            <tspan x="798.219238" y="387">1</tspan>
            <tspan x="798.219238" y="399">0</tspan>
            <tspan x="798.587891" y="411">1</tspan>
            <tspan x="798.219238" y="423">1</tspan>
        </text>
        <text id="number-line-copy-5" font-family="Helvetica" font-size="10" font-weight="normal" fill="#FFFFFF">
            <tspan x="911.219238" y="342">0</tspan>
            <tspan x="911.219238" y="354">1</tspan>
            <tspan x="911.219238" y="366">0</tspan>
            <tspan x="911.219238" y="378">1</tspan>
            <tspan x="911.219238" y="390">0</tspan>
            <tspan x="911.219238" y="402">1</tspan>
            <tspan x="911.219238" y="414">0</tspan>
            <tspan x="911.587891" y="426">1</tspan>
            <tspan x="911.219238" y="438">1</tspan>
            <tspan x="911.219238" y="450">0</tspan>
            <tspan x="911.219238" y="462">1</tspan>
            <tspan x="911.219238" y="474">0</tspan>
            <tspan x="911.219238" y="486">1</tspan>
            <tspan x="911.219238" y="498">0</tspan>
            <tspan x="911.219238" y="510">1</tspan>
            <tspan x="911.219238" y="522">0</tspan>
            <tspan x="911.587891" y="534">1</tspan>
            <tspan x="911.219238" y="546">1</tspan>
            <tspan x="911.219238" y="558">0</tspan>
            <tspan x="911.219238" y="570">1</tspan>
            <tspan x="911.219238" y="582">0</tspan>
            <tspan x="911.219238" y="594">1</tspan>
            <tspan x="911.219238" y="606">0</tspan>
            <tspan x="911.219238" y="618">1</tspan>
            <tspan x="911.219238" y="630">0</tspan>
            <tspan x="911.587891" y="642">1</tspan>
            <tspan x="911.219238" y="654">1</tspan>
        </text>
        <text id="number-line-copy-4" font-family="Helvetica" font-size="10" font-weight="normal" fill="#FFFFFF">
            <tspan x="553.219238" y="552">0</tspan>
            <tspan x="553.219238" y="564">1</tspan>
            <tspan x="553.219238" y="576">0</tspan>
            <tspan x="553.219238" y="588">1</tspan>
            <tspan x="553.219238" y="600">0</tspan>
            <tspan x="553.219238" y="612">1</tspan>
            <tspan x="553.219238" y="624">0</tspan>
            <tspan x="553.587891" y="636">1</tspan>
            <tspan x="553.219238" y="648">1</tspan>
            <tspan x="553.219238" y="660">0</tspan>
            <tspan x="553.219238" y="672">1</tspan>
            <tspan x="553.219238" y="684">0</tspan>
            <tspan x="553.219238" y="696">1</tspan>
            <tspan x="553.219238" y="708">0</tspan>
            <tspan x="553.219238" y="720">1</tspan>
            <tspan x="553.219238" y="732">0</tspan>
            <tspan x="553.587891" y="744">1</tspan>
            <tspan x="553.219238" y="756">1</tspan>
            <tspan x="553.219238" y="768">0</tspan>
            <tspan x="553.219238" y="780">1</tspan>
            <tspan x="553.219238" y="792">0</tspan>
            <tspan x="553.219238" y="804">1</tspan>
            <tspan x="553.219238" y="816">0</tspan>
            <tspan x="553.219238" y="828">1</tspan>
            <tspan x="553.219238" y="840">0</tspan>
            <tspan x="553.587891" y="852">1</tspan>
            <tspan x="553.219238" y="864">1</tspan>
        </text>
        <text id="number-line-copy-11" font-family="Helvetica" font-size="10" font-weight="normal" fill="#FFFFFF">
            <tspan x="1278.21924" y="396">0</tspan>
            <tspan x="1278.21924" y="408">1</tspan>
            <tspan x="1278.21924" y="420">0</tspan>
            <tspan x="1278.21924" y="432">1</tspan>
            <tspan x="1278.21924" y="444">0</tspan>
            <tspan x="1278.21924" y="456">1</tspan>
            <tspan x="1278.21924" y="468">0</tspan>
            <tspan x="1278.58789" y="480">1</tspan>
            <tspan x="1278.21924" y="492">1</tspan>
            <tspan x="1278.21924" y="504">0</tspan>
            <tspan x="1278.21924" y="516">1</tspan>
            <tspan x="1278.21924" y="528">0</tspan>
            <tspan x="1278.21924" y="540">1</tspan>
            <tspan x="1278.21924" y="552">0</tspan>
            <tspan x="1278.21924" y="564">1</tspan>
            <tspan x="1278.21924" y="576">0</tspan>
            <tspan x="1278.58789" y="588">1</tspan>
            <tspan x="1278.21924" y="600">1</tspan>
            <tspan x="1278.21924" y="612">0</tspan>
            <tspan x="1278.21924" y="624">1</tspan>
            <tspan x="1278.21924" y="636">0</tspan>
            <tspan x="1278.21924" y="648">1</tspan>
            <tspan x="1278.21924" y="660">0</tspan>
            <tspan x="1278.21924" y="672">1</tspan>
            <tspan x="1278.21924" y="684">0</tspan>
            <tspan x="1278.58789" y="696">1</tspan>
            <tspan x="1278.21924" y="708">1</tspan>
        </text>
        <text id="number-line-copy-10" font-family="Helvetica" font-size="10" font-weight="normal" fill="#FFFFFF">
            <tspan x="1351.21924" y="575">0</tspan>
            <tspan x="1351.21924" y="587">1</tspan>
            <tspan x="1351.21924" y="599">0</tspan>
            <tspan x="1351.21924" y="611">1</tspan>
            <tspan x="1351.21924" y="623">0</tspan>
            <tspan x="1351.21924" y="635">1</tspan>
            <tspan x="1351.21924" y="647">0</tspan>
            <tspan x="1351.58789" y="659">1</tspan>
            <tspan x="1351.21924" y="671">1</tspan>
            <tspan x="1351.21924" y="683">0</tspan>
            <tspan x="1351.21924" y="695">1</tspan>
            <tspan x="1351.21924" y="707">0</tspan>
            <tspan x="1351.21924" y="719">1</tspan>
            <tspan x="1351.21924" y="731">0</tspan>
            <tspan x="1351.21924" y="743">1</tspan>
            <tspan x="1351.21924" y="755">0</tspan>
            <tspan x="1351.58789" y="767">1</tspan>
            <tspan x="1351.21924" y="779">1</tspan>
            <tspan x="1351.21924" y="791">0</tspan>
            <tspan x="1351.21924" y="803">1</tspan>
            <tspan x="1351.21924" y="815">0</tspan>
            <tspan x="1351.21924" y="827">1</tspan>
            <tspan x="1351.21924" y="839">0</tspan>
            <tspan x="1351.21924" y="851">1</tspan>
            <tspan x="1351.21924" y="863">0</tspan>
            <tspan x="1351.58789" y="875">1</tspan>
            <tspan x="1351.21924" y="887">1</tspan>
        </text>
        <text id="number-line-copy-9" font-family="Helvetica" font-size="10" font-weight="normal" fill="#FFFFFF">
            <tspan x="1419.21924" y="92">0</tspan>
            <tspan x="1419.21924" y="104">1</tspan>
            <tspan x="1419.21924" y="116">0</tspan>
            <tspan x="1419.21924" y="128">1</tspan>
            <tspan x="1419.21924" y="140">0</tspan>
            <tspan x="1419.21924" y="152">1</tspan>
            <tspan x="1419.21924" y="164">0</tspan>
            <tspan x="1419.58789" y="176">1</tspan>
            <tspan x="1419.21924" y="188">1</tspan>
            <tspan x="1419.21924" y="200">0</tspan>
            <tspan x="1419.21924" y="212">1</tspan>
            <tspan x="1419.21924" y="224">0</tspan>
            <tspan x="1419.21924" y="236">1</tspan>
            <tspan x="1419.21924" y="248">0</tspan>
            <tspan x="1419.21924" y="260">1</tspan>
            <tspan x="1419.21924" y="272">0</tspan>
            <tspan x="1419.58789" y="284">1</tspan>
            <tspan x="1419.21924" y="296">1</tspan>
            <tspan x="1419.21924" y="308">0</tspan>
            <tspan x="1419.21924" y="320">1</tspan>
            <tspan x="1419.21924" y="332">0</tspan>
            <tspan x="1419.21924" y="344">1</tspan>
            <tspan x="1419.21924" y="356">0</tspan>
            <tspan x="1419.21924" y="368">1</tspan>
            <tspan x="1419.21924" y="380">0</tspan>
            <tspan x="1419.58789" y="392">1</tspan>
            <tspan x="1419.21924" y="404">1</tspan>
        </text>
        <text id="number-line-copy-13" font-family="Helvetica" font-size="10" font-weight="normal" fill="#FFFFFF">
            <tspan x="1205.21924" y="167">0</tspan>
            <tspan x="1205.21924" y="179">1</tspan>
            <tspan x="1205.21924" y="191">0</tspan>
            <tspan x="1205.21924" y="203">1</tspan>
            <tspan x="1205.21924" y="215">0</tspan>
            <tspan x="1205.21924" y="227">1</tspan>
            <tspan x="1205.21924" y="239">0</tspan>
            <tspan x="1205.58789" y="251">1</tspan>
            <tspan x="1205.21924" y="263">1</tspan>
            <tspan x="1205.21924" y="275">0</tspan>
            <tspan x="1205.21924" y="287">1</tspan>
            <tspan x="1205.21924" y="299">0</tspan>
            <tspan x="1205.21924" y="311">1</tspan>
            <tspan x="1205.21924" y="323">0</tspan>
            <tspan x="1205.21924" y="335">1</tspan>
            <tspan x="1205.21924" y="347">0</tspan>
            <tspan x="1205.58789" y="359">1</tspan>
            <tspan x="1205.21924" y="371">1</tspan>
            <tspan x="1205.21924" y="383">0</tspan>
            <tspan x="1205.21924" y="395">1</tspan>
            <tspan x="1205.21924" y="407">0</tspan>
            <tspan x="1205.21924" y="419">1</tspan>
            <tspan x="1205.21924" y="431">0</tspan>
            <tspan x="1205.21924" y="443">1</tspan>
            <tspan x="1205.21924" y="455">0</tspan>
            <tspan x="1205.58789" y="467">1</tspan>
            <tspan x="1205.21924" y="479">1</tspan>
        </text>
        <text id="number-line-copy-8" font-family="Helvetica" font-size="10" font-weight="normal" fill="#FFFFFF">
            <tspan x="712.219238" y="431">0</tspan>
            <tspan x="712.219238" y="443">1</tspan>
            <tspan x="712.219238" y="455">0</tspan>
            <tspan x="712.219238" y="467">1</tspan>
            <tspan x="712.219238" y="479">0</tspan>
            <tspan x="712.219238" y="491">1</tspan>
            <tspan x="712.219238" y="503">0</tspan>
            <tspan x="712.587891" y="515">1</tspan>
            <tspan x="712.219238" y="527">1</tspan>
            <tspan x="712.219238" y="539">0</tspan>
            <tspan x="712.219238" y="551">1</tspan>
            <tspan x="712.219238" y="563">0</tspan>
            <tspan x="712.219238" y="575">1</tspan>
            <tspan x="712.219238" y="587">0</tspan>
            <tspan x="712.219238" y="599">1</tspan>
            <tspan x="712.219238" y="611">0</tspan>
            <tspan x="712.587891" y="623">1</tspan>
            <tspan x="712.219238" y="635">1</tspan>
            <tspan x="712.219238" y="647">0</tspan>
            <tspan x="712.219238" y="659">1</tspan>
            <tspan x="712.219238" y="671">0</tspan>
            <tspan x="712.219238" y="683">1</tspan>
            <tspan x="712.219238" y="695">0</tspan>
            <tspan x="712.219238" y="707">1</tspan>
            <tspan x="712.219238" y="719">0</tspan>
            <tspan x="712.587891" y="731">1</tspan>
            <tspan x="712.219238" y="743">1</tspan>
        </text>
        <text id="number-line-copy-12" font-family="Helvetica" font-size="10" font-weight="normal" fill="#FFFFFF">
            <tspan x="1065.21924" y="440">0</tspan>
            <tspan x="1065.21924" y="452">1</tspan>
            <tspan x="1065.21924" y="464">0</tspan>
            <tspan x="1065.21924" y="476">1</tspan>
            <tspan x="1065.21924" y="488">0</tspan>
            <tspan x="1065.21924" y="500">1</tspan>
            <tspan x="1065.21924" y="512">0</tspan>
            <tspan x="1065.58789" y="524">1</tspan>
            <tspan x="1065.21924" y="536">1</tspan>
            <tspan x="1065.21924" y="548">0</tspan>
            <tspan x="1065.21924" y="560">1</tspan>
            <tspan x="1065.21924" y="572">0</tspan>
            <tspan x="1065.21924" y="584">1</tspan>
            <tspan x="1065.21924" y="596">0</tspan>
            <tspan x="1065.21924" y="608">1</tspan>
            <tspan x="1065.21924" y="620">0</tspan>
            <tspan x="1065.58789" y="632">1</tspan>
            <tspan x="1065.21924" y="644">1</tspan>
            <tspan x="1065.21924" y="656">0</tspan>
            <tspan x="1065.21924" y="668">1</tspan>
            <tspan x="1065.21924" y="680">0</tspan>
            <tspan x="1065.21924" y="692">1</tspan>
            <tspan x="1065.21924" y="704">0</tspan>
            <tspan x="1065.21924" y="716">1</tspan>
            <tspan x="1065.21924" y="728">0</tspan>
            <tspan x="1065.58789" y="740">1</tspan>
            <tspan x="1065.21924" y="752">1</tspan>
        </text>
    </g>
</svg>