<?xml version="1.0" encoding="UTF-8"?>
<svg width="99px" height="99px" viewBox="0 0 99 99" version="1.1" xmlns="http://www.w3.org/2000/svg" xmlns:xlink="http://www.w3.org/1999/xlink">
    <title>design-icon</title>
    <g id="design-icon" stroke="none" stroke-width="1" fill="none" fill-rule="evenodd">
        <g id="sketch" transform="translate(7.000000, 7.000000)" fill="#E8B923" fill-rule="nonzero">
            <path d="M74.2358747,59.0943371 C73.7734471,58.9026451 73.2411943,59.0085368 72.8871276,59.3624425 L59.3624388,72.8872705 C59.0085368,73.2413409 58.9026461,73.7735992 59.0943362,74.2360315 C59.2856969,74.6986285 59.7372554,75 60.2377246,75 L73.7624134,75 C74.4460091,75 75,74.4460034 75,73.7624007 L75,60.2375726 C74.9998353,59.7370983 74.6983022,59.2858645 74.2358747,59.0943371 Z M63.2250593,72.524966 L72.5244974,63.2254322 L72.5244974,72.524966 L63.2250593,72.524966 Z" id="Shape"></path>
            <path d="M84.2298535,39.9797691 C83.7636816,39.7859052 83.2271191,39.8929967 82.8701855,40.2509121 L79.1336719,43.9994474 L79.1336719,18.5121718 C79.1336719,17.8208238 78.5750293,17.2605504 77.8860645,17.2605504 L68.3001563,17.2605504 L71.7798438,13.7696676 C71.7803418,13.7691679 71.7808398,13.7685017 71.7813379,13.7680021 L75.1341895,10.4043632 C75.8525391,9.68370242 76.2481543,8.72504203 76.2481543,7.70575753 C76.2481543,6.68647302 75.8525391,5.72814573 75.1341895,5.00715184 L71.2570605,1.11754886 C70.5387109,0.396888067 69.583125,0 68.5671094,0 C67.5510938,0 66.5956738,0.396888067 65.8771582,1.11754886 L62.5226465,4.48285321 L58.469209,8.54933204 L49.7860938,17.2603839 L11.0599609,17.2603839 L11.0599609,4.87824233 C11.0599609,4.1868943 10.5013184,3.62662092 9.81235352,3.62662092 C4.4019043,3.62695402 0,8.04268768 0,13.4708773 L0,66.6312275 C0,66.7236626 0.010625,66.8135995 0.0295507813,66.9002053 C0.201875,69.2034219 1.19514648,71.3434197 2.85513672,72.967946 C4.62951172,74.7040607 6.97182617,75.6602228 9.45077148,75.6602228 L47.5742676,75.6602228 L40.3942578,82.8633332 C40.0374902,83.2214152 39.9307422,83.7595374 40.1238184,84.2273757 C40.3168945,84.6950474 40.7719434,85 41.2764648,85 L83.7523926,85 C84.4413574,85 85,84.4397266 85,83.7483786 L85,41.1361241 C85,40.6299793 84.6958594,40.1734665 84.2298535,39.9797691 Z M67.6419043,2.88780621 C68.1519043,2.37583226 68.9828125,2.37583226 69.4928125,2.88780621 L73.3701074,6.77757574 C73.8804395,7.28938314 73.8804395,8.12263156 73.3701074,8.63460551 L70.8979688,11.1148645 L65.1694336,5.36806516 L67.6419043,2.88780621 Z M63.4050195,7.13815596 L69.1333887,12.8847887 L66.8441992,15.1813433 L61.1161621,9.43471054 L63.4050195,7.13815596 Z M82.5051172,55.1999185 L80.2033105,55.1999185 C79.5141797,55.1999185 78.9557031,55.7601919 78.9557031,56.4515399 C78.9557031,57.1428879 79.5141797,57.7031613 80.2033105,57.7031613 L82.5051172,57.7031613 L82.5051172,61.4748471 L80.2033105,61.4748471 C79.5141797,61.4748471 78.9557031,62.0351204 78.9557031,62.7264685 C78.9557031,63.4178165 79.5141797,63.9780899 80.2033105,63.9780899 L82.5051172,63.9780899 L82.5051172,67.7496091 L80.2033105,67.7496091 C79.5141797,67.7496091 78.9557031,68.3098825 78.9557031,69.0012305 C78.9557031,69.6925785 79.5141797,70.2528519 80.2033105,70.2528519 L82.5051172,70.2528519 L82.5051172,74.0245377 L80.2033105,74.0245377 C79.5141797,74.0245377 78.9557031,74.5849776 78.9557031,75.2761591 C78.9557031,75.9675071 79.5141797,76.5277805 80.2033105,76.5277805 L82.5051172,76.5277805 L82.5051172,82.4972568 L44.2883203,82.4972568 L56.8902344,69.8549646 C57.3774902,69.3659745 57.3774902,68.5736973 56.8902344,68.0848738 C56.8342871,68.0287465 56.7741895,67.980114 56.7112695,67.936811 C56.2255078,67.6030453 55.5571289,67.6521775 55.1256543,68.0848738 L50.0694824,73.1573131 L9.4509375,73.1573131 C5.66710938,73.1573131 2.62105469,70.1937268 2.50119141,66.4045533 C2.50833008,66.1667202 2.52675781,65.9308858 2.55630859,65.6977161 C2.55647461,65.6963837 2.55664063,65.6950513 2.55680664,65.6937189 C2.57075195,65.5829633 2.58751953,65.4727074 2.60661133,65.3631177 C2.60876953,65.3506264 2.61109375,65.3381352 2.61325195,65.325644 C2.63068359,65.2278793 2.65027344,65.1306142 2.67168945,65.0336822 C2.67766602,65.0067012 2.68397461,64.9797201 2.6902832,64.9529056 C2.70920898,64.8709631 2.72962891,64.7895203 2.75154297,64.7084106 C2.76349609,64.6644414 2.77594727,64.6209719 2.78873047,64.5771694 C2.80699219,64.5135474 2.82591797,64.4500919 2.84600586,64.3873026 C2.86609375,64.3245134 2.88750977,64.2623903 2.90925781,64.2002673 C2.92436523,64.1567978 2.93930664,64.1133283 2.95557617,64.0701919 C2.98595703,63.9882494 3.01816406,63.9071397 3.05136719,63.8266962 C3.06083008,63.8035457 3.07012695,63.7800622 3.07992188,63.7569118 C3.12258789,63.656982 3.16691406,63.558218 3.21373047,63.4606198 C3.21572266,63.4564561 3.21754883,63.4522923 3.21954102,63.4481286 C4.19538086,61.4222173 6.0721875,59.9117776 8.32452148,59.4431066 C8.33083008,59.4417742 8.33713867,59.4402753 8.34344727,59.4389429 C8.44670898,59.417791 8.5509668,59.3996371 8.65588867,59.3828156 C8.67332031,59.3799842 8.69075195,59.3764867 8.70851563,59.3738219 C8.80331055,59.3593321 8.89910156,59.3480067 8.99488281,59.337181 C9.02178711,59.3341831 9.04851563,59.3300193 9.07557617,59.3273545 C9.16804688,59.3180277 9.26134766,59.3118654 9.35464844,59.3060362 C9.38419922,59.3042041 9.41375,59.3010397 9.44330078,59.2995407 C9.56548828,59.2933784 9.68867188,59.2902139 9.81235352,59.2902139 C10.5013184,59.2902139 11.0599609,58.7299406 11.0599609,58.0385925 L11.0599609,48.9634629 C11.0599609,48.2721149 10.5013184,47.7118415 9.81235352,47.7118415 C9.12338867,47.7118415 8.56474609,48.2721149 8.56474609,48.9634629 L8.56474609,56.8657491 C6.45800781,57.1330615 4.50250977,58.0757331 2.96055664,59.5863394 C2.79835938,59.7452279 2.64462891,59.9104452 2.49488281,60.0783274 L2.49488281,13.4708773 C2.49488281,9.84991908 5.12224609,6.83253716 8.56458008,6.23662214 L8.56458008,18.5121718 L8.56458008,43.9571438 L8.56458008,43.9573104 C8.56458008,44.6484918 9.12322266,45.2089318 9.8121875,45.2089318 C10.5011523,45.2089318 11.0597949,44.6484918 11.0597949,43.9573104 L11.0597949,43.9571438 L11.0597949,19.7637933 L47.2910449,19.7637933 L40.3940918,26.6829363 C39.9068359,27.1719264 39.9068359,27.9642036 40.3940918,28.4530271 C40.8813477,28.9416841 41.67125,28.9416841 42.1583398,28.4530271 L51.1851074,19.3972172 C51.1854395,19.3968841 51.1856055,19.396551 51.1859375,19.3963845 L59.351416,11.2046348 L65.0794531,16.9514341 L64.4074219,17.6256275 C64.4069238,17.6261271 64.4062598,17.6266268 64.4057617,17.6271264 L39.2497461,42.8644109 L33.521543,37.1177781 L38.4800977,32.14327 C38.9673535,31.6542799 38.9673535,30.8620028 38.4800977,30.3731792 C37.9928418,29.8845222 37.2029395,29.8845222 36.7158496,30.3731792 L30.8749219,36.2327327 C30.8437109,36.2640441 30.8144922,36.2971875 30.7870996,36.3311636 C30.7779688,36.342489 30.769834,36.3546471 30.7612012,36.3664722 C30.7436035,36.3899557 30.7263379,36.4136057 30.7102344,36.4382551 C30.7011035,36.4525784 30.6928027,36.4672348 30.6841699,36.4820577 C30.6703906,36.5053747 30.6571094,36.5290247 30.6449902,36.5531744 C30.6370215,36.5688301 30.6298828,36.5846523 30.6225781,36.6009742 C30.6114551,36.625457 30.6011621,36.6504395 30.5916992,36.675422 C30.5883789,36.6842491 30.5840625,36.6925766 30.5809082,36.7014037 L28.1502734,43.6090548 L26.4931055,48.3189153 C26.4711914,48.3815381 26.4554199,48.4451601 26.4436328,48.5092817 L22.2945703,48.5092817 C21.6056055,48.5092817 21.0469629,49.0695551 21.0469629,49.7609031 C21.0469629,50.4522512 21.6056055,51.0125245 22.2945703,51.0125245 L56.8447461,51.0125245 C57.533877,51.0125245 58.0923535,50.4522512 58.0923535,49.7609031 C58.0923535,49.0695551 57.533877,48.5092817 56.8447461,48.5092817 L32.0564551,48.5092817 L39.6649512,45.8148398 C39.6712598,45.8125081 39.6772363,45.8093436 39.6835449,45.8070119 C39.7130957,45.7960197 39.7421484,45.783695 39.7708691,45.7705375 C39.7823242,45.765208 39.7937793,45.7602115 39.8049023,45.7547153 C39.8347852,45.7397258 39.8641699,45.7232374 39.8930566,45.7055831 C39.9023535,45.6999204 39.9119824,45.6947574 39.9211133,45.6889282 C39.9511621,45.6696084 39.9803809,45.6484566 40.0091016,45.6261389 C40.0162402,45.6206428 40.0237109,45.6158128 40.0306836,45.6101501 C40.0653809,45.5821698 40.0994141,45.5520243 40.1316211,45.5197136 L65.8049414,19.7639598 L76.638291,19.7639598 L76.638291,46.5028568 L58.7922754,64.4064559 C58.3050195,64.8954459 58.3050195,65.6877231 58.7922754,66.1765467 C58.8226563,66.2070253 58.8543652,66.2356718 58.8870703,66.2624863 C59.1158398,66.4495217 59.3952441,66.5431227 59.6744824,66.5431227 C59.9537207,66.5431227 60.233291,66.4495217 60.4618945,66.2624863 C60.4945996,66.2358384 60.5263086,66.2070253 60.5566895,66.1765467 C60.5571875,66.176047 60.5566895,66.1765467 60.5571875,66.176047 L82.5051172,44.1573366 L82.5051172,55.1999185 Z M36.9678613,44.115033 L33.394209,45.3806446 L31.0132129,42.991988 L32.2747656,39.4068379 L36.9678613,44.115033 Z" id="Shape"></path>
        </g>
    </g>
</svg>