<?xml version="1.0" encoding="UTF-8"?>
<svg width="99px" height="99px" viewBox="0 0 99 99" version="1.1" xmlns="http://www.w3.org/2000/svg" xmlns:xlink="http://www.w3.org/1999/xlink">
    <title>development-icon</title>
    <g id="development-icon" stroke="none" stroke-width="1" fill="none" fill-rule="evenodd">
        <g id="web-programming" transform="translate(12.000000, 16.000000)" fill="#E8B923" fill-rule="nonzero">
            <path d="M30.7003931,48 C30.4032797,48 30.1039922,47.9033125 29.8597793,47.7065088 L21.4565403,40.9356355 C21.1666735,40.7018025 21,40.3603101 21,39.9996175 C21,39.6396105 21.1673981,39.2981183 21.4565403,39.0642852 L29.8597793,32.2934119 C30.4054537,31.853175 31.2250522,31.915576 31.6902884,32.431929 C32.1547999,32.9489674 32.0895799,33.7245252 31.5431809,34.1640765 L24.3015831,39.9996175 L31.5431809,45.8351584 C32.0895799,46.2753955 32.1547999,47.0509532 31.6902884,47.5673061 C31.4330315,47.8532544 31.0677993,48 30.7003931,48 Z" id="Path"></path>
            <path d="M46.299287,48 C45.9318687,48 45.5666245,47.8532544 45.3100838,47.5673061 C44.8448323,47.0509532 44.910779,46.2753955 45.4564714,45.8351584 L52.698308,39.9996175 L45.4564714,34.1640765 C44.910779,33.7245252 44.8448323,32.9489674 45.3100838,32.431929 C45.7746106,31.915576 46.594961,31.853175 47.1399285,32.2934119 L55.5434446,39.0642852 C55.833321,39.2981183 56,39.6396105 56,39.9996175 C56,40.3603101 55.833321,40.7018025 55.5434446,40.9356355 L47.1399285,47.7065088 C46.8957076,47.9033125 46.5964102,48 46.299287,48 L46.299287,48 Z" id="Path"></path>
            <path d="M35.3280717,54 C35.2370589,54 35.1453062,53.9910813 35.0528135,53.9732438 C34.3365503,53.8332886 33.8777866,53.1808504 34.0287347,52.5167491 L39.3762911,28.9761422 C39.5272389,28.312041 40.2301833,27.8866868 40.9471865,28.0266421 C41.6634497,28.1665973 42.1222134,28.8183497 41.9712653,29.483137 L36.6237091,53.0237436 C36.4919995,53.6027741 35.9414831,54 35.3280717,54 L35.3280717,54 Z" id="Path"></path>
            <path d="M67.5754717,67 L8.4245283,67 C3.77955492,67 0,63.22414 0,58.5821482 L0,8.41785184 C0,3.77655962 3.77955492,0 8.4245283,0 L67.5754717,0 C72.2204451,0 76,3.77655962 76,8.41785184 L76,58.5821482 C76,63.22414 72.2204451,67 67.5754717,67 Z M8.4245283,2.50744523 C5.16310445,2.50744523 2.50943396,5.15901268 2.50943396,8.41785184 L2.50943396,58.5821482 C2.50943396,61.8409873 5.16310445,64.4925548 8.4245283,64.4925548 L67.5754717,64.4925548 C70.8368955,64.4925548 73.490566,61.8409873 73.490566,58.5821482 L73.490566,8.41785184 C73.490566,5.15901268 70.8368955,2.50744523 67.5754717,2.50744523 L8.4245283,2.50744523 Z" id="Shape"></path>
            <path d="M74.745283,20 L1.25471698,20 C0.561541774,20 0,19.5524553 0,19 C0,18.4481026 0.561541774,18 1.25471698,18 L74.745283,18 C75.4384582,18 76,18.4481026 76,19 C76,19.5524553 75.4384582,20 74.745283,20 Z" id="Path"></path>
            <path d="M22,14 C19.7950978,14 18,12.2049022 18,10 C18,7.7943925 19.7950978,6 22,6 C24.2056075,6 26,7.7943925 26,10 C26,12.2049022 24.2056075,14 22,14 Z M21.9999999,8.52794919 C21.1888556,8.52794919 20.5279492,9.1881502 20.5279492,10 C20.5279492,10.8118498 21.1888556,11.4720508 21.9999999,11.4720508 C22.8118497,11.4720508 23.4720508,10.8118498 23.4720508,10 C23.4720508,9.1881502 22.8118497,8.52794919 21.9999999,8.52794919 Z" id="Shape"></path>
            <path d="M9,14 C6.79439254,14 5,12.2056075 5,10 C5,7.79439254 6.79439254,6 9,6 C11.2056075,6 13,7.79439254 13,10 C13,12.2056075 11.2056075,14 9,14 Z M8.99999991,8.52794924 C8.18885557,8.52794924 7.52794924,9.18885557 7.52794924,9.99999991 C7.52794924,10.8118497 8.18885557,11.4720508 8.99999991,11.4720508 C9.81184973,11.4720508 10.4720508,10.8118497 10.4720508,9.99999991 C10.4720508,9.18885557 9.81184973,8.52794924 8.99999991,8.52794924 Z" id="Shape"></path>
            <path d="M33.9996472,14 C31.7945508,14 30,12.2054493 30,9.99964732 C30,7.79455071 31.7945508,6 33.9996472,6 C36.2054492,6 38,7.79455071 38,9.99964732 C38,12.2054493 36.2054492,14 33.9996472,14 Z M33.9996472,8.52746672 C33.1884314,8.52746672 32.5281721,9.18772594 32.5281721,9.99964732 C32.5281721,10.8115687 33.1884314,11.4718279 33.9996472,11.4718279 C34.8115686,11.4718279 35.4718279,10.8115687 35.4718279,9.99964732 C35.4718279,9.18772594 34.8115686,8.52746672 33.9996472,8.52746672 Z" id="Shape"></path>
        </g>
    </g>
</svg>