<?xml version="1.0" encoding="UTF-8"?>
<svg width="99px" height="99px" viewBox="0 0 99 99" version="1.1" xmlns="http://www.w3.org/2000/svg" xmlns:xlink="http://www.w3.org/1999/xlink">
    <title>instructing-icon</title>
    <g id="instructing-icon" stroke="none" stroke-width="1" fill="none" fill-rule="evenodd">
        <g id="presentation" transform="translate(8.000000, 13.000000)" fill="#E8B923" fill-rule="nonzero">
            <path d="M77.8021229,46.4545455 L30.5965898,46.4545455 C29.1740425,46.4526029 28.0215166,45.3175532 28.020202,43.9172242 L28.020202,25.7460104 C28.020202,25.0972494 28.5544716,24.5713247 29.2135266,24.5713247 C29.8725815,24.5713247 30.4068512,25.0972494 30.4068512,25.7460104 L30.4068512,43.9172242 C30.4062092,43.9670586 30.4259545,44.0150533 30.4616424,44.0504046 C30.4973302,44.085756 30.5459616,44.1054934 30.5965898,44.105174 L77.8021229,44.105174 C77.852957,44.1058115 77.9018985,44.0862145 77.9378465,44.0508279 C77.9737946,44.0154414 77.9937025,43.9672643 77.9930549,43.9172242 L77.9930549,11.9352301 L30.4068512,11.9352301 L30.4068512,18.7190403 C30.4068512,19.3678013 29.8725815,19.893726 29.2135266,19.893726 C28.5544716,19.893726 28.020202,19.3678013 28.020202,18.7190403 L28.020202,10.7605443 C28.020202,10.1117833 28.5544716,9.58585859 29.2135266,9.58585859 L79.1804128,9.58585859 C79.8394678,9.58585859 80.3737374,10.1117833 80.3737374,10.7605443 L80.3737374,43.9172242 C80.3724306,45.3157237 79.2228056,46.4500181 77.8021229,46.4545455 Z" id="Path"></path>
            <path d="M14.9988432,16 C10.5807159,15.9993612 6.99957413,12.4173563 7,7.99922891 C7.00042587,3.58110149 10.5822581,-0.00021291154 15.0003855,0 C19.4185129,0.00021291154 23,3.58187252 23,8 C22.9948993,12.416615 19.415459,15.9955378 14.9988432,16 Z M14.9987795,2 C11.6852299,2.00067403 8.99955067,4.68726396 9,8.00081357 C9.00044933,11.3143632 11.6868571,14.0002246 15.0004067,14 C18.3139563,13.9997754 21,11.3135497 21,8 C20.9966351,4.68720985 18.3115703,2.00269107 14.9987795,2 L14.9987795,2 Z" id="Shape"></path>
            <path d="M11.0936631,73 C8.23537652,73.0065845 5.91135317,70.6763993 5.8989899,67.7915398 L5.8989899,42.4845207 C5.8989899,41.826423 6.4275659,41.2929293 7.07959744,41.2929293 C7.73162898,41.2929293 8.26020498,41.826423 8.26020498,42.4845207 L8.26020498,67.793923 C8.26571845,68.5781046 8.59123178,69.3253202 9.16005088,69.8595187 C9.72886999,70.3937172 10.4906947,70.6676598 11.2660318,70.6168031 C12.0711698,70.5537977 12.8067483,70.132364 13.2730646,69.4669174 C13.5673856,69.0190754 13.7373892,68.4997934 13.7653779,67.963129 C13.8279501,67.272006 13.8610071,66.568967 13.8610071,65.8730776 L13.8610071,46.7504181 C13.8610071,46.0923203 14.3895831,45.5588267 15.0416147,45.5588267 C15.6936462,45.5588267 16.2222222,46.0923203 16.2222222,46.7504181 L16.2222222,65.871886 C16.2222222,66.6404625 16.186804,67.4209549 16.1171482,68.1811902 C16.053121,69.1457865 15.7303078,70.0746313 15.1832876,70.8682289 C14.3019405,72.1111606 12.9162066,72.8913317 11.4053435,72.9952197 C11.3049918,73 11.1987371,73 11.0936631,73 Z" id="Path"></path>
            <path d="M19.0437603,73 C18.9388002,73 18.8326609,73 18.7277008,72.9905058 C17.2186812,72.887321 15.8344883,72.1107691 14.9538568,70.8733254 C14.4069581,70.0830974 14.0840789,69.1579936 14.0198305,68.1971809 C13.9502502,67.434094 13.9148704,66.6615131 13.9148704,65.8984262 L13.9148704,46.8568571 C13.9148704,46.2014275 14.4428728,45.6700968 15.0941967,45.6700968 C15.7455206,45.6700968 16.2735229,46.2014275 16.2735229,46.8568571 L16.2735229,65.9007997 C16.2735229,66.5914942 16.3053647,67.2916828 16.367869,67.9823773 C16.3961222,68.5169892 16.5663563,69.0341894 16.8608274,69.4800688 C17.3271688,70.1441831 18.0634796,70.5644766 18.86922,70.6264792 C19.6416444,70.6740402 20.3995669,70.4001885 20.9655081,69.869051 C21.5314492,69.3379135 21.8557065,68.5961361 21.86235,67.8174176 L21.86235,28.1997984 C21.8642988,26.3213024 23.3767503,24.798786 25.2434784,24.7961698 L36.5827003,24.7961698 C37.207394,24.7948709 37.8062992,24.5453535 38.2490882,24.1019151 C38.6851968,23.6607322 38.9284194,23.0627249 38.9248422,22.4404506 C38.9270355,21.8131559 38.6815061,21.2106772 38.2422684,20.7655549 C37.8030308,20.3204326 37.2060655,20.0691294 36.5827003,20.06693 L8.56072924,20.06693 C5.13538394,20.0702038 2.35995238,22.864724 2.3586525,26.3116627 L2.3586525,43.044983 C2.36644054,44.0498704 3.18092298,44.8588702 4.17953223,44.8536057 C4.64466749,44.8679797 5.09599232,44.6934422 5.43185273,44.3693052 C5.76771315,44.0451682 5.95986613,43.5986889 5.96503217,43.1304298 L5.96503217,28.2852451 C5.96503217,27.6298155 6.49303452,27.0984848 7.14435842,27.0984848 C7.79568232,27.0984848 8.32368467,27.6298155 8.32368467,28.2852451 L8.32368467,43.1304298 C8.32108395,45.3923511 6.49922414,47.2251644 4.25147113,47.2271263 C3.13540021,47.2439202 2.05882313,46.8117858 1.2606374,46.026616 C0.462451666,45.2414461 0.00867407381,44.1681809 0,43.044983 L0,26.3116627 C0.00519962488,21.5560682 3.83492447,17.7022021 8.56072924,17.6969697 L36.5862382,17.6969697 C39.1856719,17.6969697 41.2929293,19.8175105 41.2929293,22.4333301 C41.2929293,25.0491497 39.1856719,27.1696904 36.5862382,27.1696904 L25.2470163,27.1696904 C24.6821278,27.1703453 24.2245401,27.6313486 24.2245405,28.1997984 L24.2245405,67.8162308 C24.2089665,70.6842115 21.8938179,73.0006957 19.0437603,73 Z" id="Path"></path>
            <path d="M82.1316777,11.7979798 L26.9996355,11.7979798 C26.341558,11.7979798 25.8080808,11.3027796 25.8080808,10.6919192 C25.8080808,10.0810588 26.341558,9.58585859 26.9996355,9.58585859 L82.1316777,9.58585859 C82.7897551,9.58585859 83.3232323,10.0810588 83.3232323,10.6919192 C83.3232323,11.3027796 82.7897551,11.7979798 82.1316777,11.7979798 Z" id="Path"></path>
            <path d="M82.1316777,47.1919192 L26.9996355,47.1919192 C26.341558,47.1919192 25.8080808,46.696719 25.8080808,46.0858586 C25.8080808,45.4749982 26.341558,44.979798 26.9996355,44.979798 L82.1316777,44.979798 C82.7897551,44.979798 83.3232323,45.4749982 83.3232323,46.0858586 C83.3232323,46.696719 82.7897551,47.1919192 82.1316777,47.1919192 Z" id="Path"></path>
            <path d="M74.8081208,71 L67.5278423,71 C67.1814983,71 66.8522116,70.8507873 66.6257027,70.5907297 L54.4974664,56.6436081 L42.3632716,70.5907297 C42.1367627,70.8507873 41.8074759,71 41.461132,71 L34.191579,71 C33.7238604,71 33.2994217,70.7283115 33.1063235,70.3054843 C32.9132253,69.8826571 32.9871715,69.3868057 33.295398,69.0376324 L48.5304743,51.7678524 L48.5304743,45.1828616 C48.5304743,44.5295852 49.06403,44 49.7222043,44 L59.2834541,44 C59.9416284,44 60.4751841,44.5295852 60.4751841,45.1828616 L60.4751841,51.6886007 L75.7066853,69.0388152 C76.0136355,69.3884117 76.0864631,69.8837881 75.8929604,70.3058675 C75.6994578,70.7279469 75.2753206,70.9988677 74.8081208,70.998817 L74.8081208,71 Z M67.9343732,69 L72,69 L58.338645,52.7634123 C58.1515777,52.5409295 58.0485442,52.2558159 58.04858,51.9607458 L58.04858,46 L50.9455244,46 L50.9455244,52.0340487 C50.9454777,52.3302758 50.8415564,52.6163958 50.6531011,52.8391586 L37,69 L41.058552,69 L53.6044537,53.9472538 C53.8351036,53.6904089 54.1584529,53.5445139 54.4970522,53.5445139 C54.8356515,53.5445139 55.1590008,53.6904089 55.3896506,53.9472538 L67.9343732,69 Z" id="Shape"></path>
        </g>
    </g>
</svg>